<svg id="Grupo_8808" data-name="Grupo 8808" xmlns="http://www.w3.org/2000/svg" width="111.085" height="105.34" viewBox="0 0 111.085 105.34">
  <path id="Trazado_7230" data-name="Trazado 7230" d="M291.348,73.611H249.212a1.915,1.915,0,0,0-1.915,1.915v42.136a1.915,1.915,0,0,0,1.915,1.915h42.136a1.915,1.915,0,0,0,1.915-1.915V75.526a1.915,1.915,0,0,0-1.915-1.915" transform="translate(-230.059 -27.645)" fill="#f0d9b7"/>
  <rect id="Rectángulo_5641" data-name="Rectángulo 5641" width="34.474" height="34.474" transform="translate(22.983 51.712)" fill="#e4caa7"/>
  <rect id="Rectángulo_5642" data-name="Rectángulo 5642" width="34.474" height="3.83" transform="translate(22.983 57.458)" fill="#d8bb97"/>
  <rect id="Rectángulo_5643" data-name="Rectángulo 5643" width="34.474" height="3.831" transform="translate(22.983 76.61)" fill="#d8bb97"/>
  <rect id="Rectángulo_5644" data-name="Rectángulo 5644" width="34.474" height="3.83" transform="translate(22.983 67.034)" fill="#d8bb97"/>
  <path id="Trazado_7231" data-name="Trazado 7231" d="M293.263,44.051V1.915A1.915,1.915,0,0,0,291.348,0H249.212A1.915,1.915,0,0,0,247.3,1.915V44.051a1.915,1.915,0,0,0,1.915,1.915h42.136a1.915,1.915,0,0,0,1.915-1.915" transform="translate(-230.059)" fill="#f4e2c6"/>
  <rect id="Rectángulo_5645" data-name="Rectángulo 5645" width="34.474" height="34.474" transform="translate(22.983 5.746)" fill="#f0d9b7"/>
  <rect id="Rectángulo_5646" data-name="Rectángulo 5646" width="3.83" height="34.474" transform="translate(47.882 5.746)" fill="#d8bb97"/>
  <rect id="Rectángulo_5647" data-name="Rectángulo 5647" width="3.83" height="34.474" transform="translate(28.73 5.746)" fill="#d8bb97"/>
  <rect id="Rectángulo_5648" data-name="Rectángulo 5648" width="3.83" height="34.474" transform="translate(38.306 5.746)" fill="#d8bb97"/>
  <path id="Trazado_7232" data-name="Trazado 7232" d="M380.9,153.356a4.788,4.788,0,1,1-4.788,4.788,4.788,4.788,0,0,1,4.788-4.788" transform="translate(-278.438 -57.593)" fill="#5f5e6f"/>
  <path id="Trazado_7233" data-name="Trazado 7233" d="M381.8,158.549h0a2.015,2.015,0,0,1-1.976-1.62l-1.328-6.64H385.1l-1.328,6.64a2.015,2.015,0,0,1-1.976,1.62" transform="translate(-279.33 -56.442)" fill="#d3d8e9"/>
  <path id="Trazado_7234" data-name="Trazado 7234" d="M328.862,102.674H231.184a1.914,1.914,0,0,1-1.915-1.915V33.068A5.713,5.713,0,0,0,227.586,29l-7.332-7.332a1.915,1.915,0,1,1,2.708-2.708l7.332,7.332a9.516,9.516,0,0,1,2.806,6.772V98.843h95.763a1.915,1.915,0,1,1,0,3.83" transform="translate(-219.692 -6.911)" fill="#aeb2ca"/>
  <path id="Trazado_7235" data-name="Trazado 7235" d="M229.269,138.021a9.576,9.576,0,1,1-9.577,9.576,9.577,9.577,0,0,1,9.577-9.576" transform="translate(-219.692 -51.835)" fill="#5f5e6f"/>
  <path id="Trazado_7236" data-name="Trazado 7236" d="M231.573,144.155a5.746,5.746,0,1,1-5.746,5.746,5.745,5.745,0,0,1,5.746-5.746" transform="translate(-221.996 -54.137)" fill="#eb5c60"/>
  <path id="Trazado_7237" data-name="Trazado 7237" d="M227.354,27.979A1.907,1.907,0,0,1,226,27.418l-5.746-5.746a1.915,1.915,0,1,1,2.708-2.708l5.746,5.746a1.915,1.915,0,0,1-1.354,3.269" transform="translate(-219.692 -6.911)" fill="#eb5c60"/>
  <path id="Trazado_7238" data-name="Trazado 7238" d="M351.553,106.143V44.855a1.916,1.916,0,0,0-1.916-1.915H322.824a1.915,1.915,0,0,0-1.915,1.915v61.288a1.915,1.915,0,0,0,1.915,1.915h26.814a1.916,1.916,0,0,0,1.916-1.915" transform="translate(-257.704 -16.126)" fill="#f4e2c6"/>
  <rect id="Rectángulo_5649" data-name="Rectángulo 5649" width="19.152" height="53.628" transform="translate(68.95 32.559)" fill="#f0d9b7"/>
  <rect id="Rectángulo_5650" data-name="Rectángulo 5650" width="19.152" height="3.83" transform="translate(68.95 38.306)" fill="#d8bb97"/>
  <rect id="Rectángulo_5651" data-name="Rectángulo 5651" width="19.152" height="3.83" transform="translate(68.95 47.881)" fill="#d8bb97"/>
  <rect id="Rectángulo_5652" data-name="Rectángulo 5652" width="19.152" height="3.83" transform="translate(68.95 57.458)" fill="#d8bb97"/>
  <rect id="Rectángulo_5653" data-name="Rectángulo 5653" width="19.152" height="3.83" transform="translate(68.95 67.034)" fill="#d8bb97"/>
  <rect id="Rectángulo_5654" data-name="Rectángulo 5654" width="19.152" height="3.831" transform="translate(68.95 76.61)" fill="#d8bb97"/>
  <path id="Trazado_7239" data-name="Trazado 7239" d="M233.877,150.289a1.915,1.915,0,1,1-1.915,1.915,1.915,1.915,0,0,1,1.915-1.915" transform="translate(-224.3 -56.442)" fill="#d44c52"/>
</svg>
