<svg id="Grupo_8799" data-name="Grupo 8799" xmlns="http://www.w3.org/2000/svg" xmlns:xlink="http://www.w3.org/1999/xlink" width="151.667" height="117.601" viewBox="0 0 151.667 117.601">
  <defs>
    <clipPath id="clip-path">
      <rect id="Rectángulo_5605" data-name="Rectángulo 5605" width="151.667" height="117.601" fill="none"/>
    </clipPath>
  </defs>
  <g id="Grupo_8798" data-name="Grupo 8798" clip-path="url(#clip-path)">
    <path id="Trazado_6912" data-name="Trazado 6912" d="M28.043,43.18C3.711,43.18,6.409,72.77,6.52,94.213a2.29,2.29,0,0,0,1.122,1.958,40.331,40.331,0,0,0,20.4,5.426,40.331,40.331,0,0,0,20.4-5.426,2.291,2.291,0,0,0,1.122-1.958C49.678,72.77,52.375,43.18,28.043,43.18" transform="translate(-1.91 -12.926)" fill="#694b4b"/>
    <path id="Trazado_6913" data-name="Trazado 6913" d="M26.477,43.267C3.846,44.536,6.413,73.273,6.521,94.239A2.29,2.29,0,0,0,7.643,96.2a40.329,40.329,0,0,0,20.4,5.426l6.149-43.043" transform="translate(-1.911 -12.952)" fill="#5a4146"/>
    <path id="Trazado_6914" data-name="Trazado 6914" d="M30.977,43.18c-13.836,0-14.8,16.717-14.8,16.717,7.975-1.345,12.875,2.018,20.945-1.345L30.977,101.6a40.331,40.331,0,0,0,20.4-5.426A2.291,2.291,0,0,0,52.5,94.212C52.612,72.77,55.309,43.18,30.977,43.18" transform="translate(-4.844 -12.926)" fill="#694b4b"/>
    <path id="Trazado_6915" data-name="Trazado 6915" d="M62.421,94.926c.1-18.426,2.084-42.848-12.792-49.363-.259,1.349-.729,5.111.492,7.554,3.074,6.149,6.15,6.149,9.223,10.761,3.075,16.911-5.874,34.858-8.846,37.3a38.7,38.7,0,0,0,10.8-4.3,2.29,2.29,0,0,0,1.122-1.958" transform="translate(-14.764 -13.639)" fill="#785550"/>
    <path id="Trazado_6916" data-name="Trazado 6916" d="M49.429,117.431l-13.717-5.715a3.075,3.075,0,0,1-1.892-2.838v-3.715H18.447v3.715a3.075,3.075,0,0,1-1.892,2.838L2.838,117.431A4.612,4.612,0,0,0,0,121.688v6.15a3.075,3.075,0,0,0,3.074,3.074H49.192a3.075,3.075,0,0,0,3.075-3.074v-6.15a4.612,4.612,0,0,0-2.838-4.257" transform="translate(0 -31.481)" fill="#e6af78"/>
    <path id="Trazado_6917" data-name="Trazado 6917" d="M49.429,120.312l-13.263-5.526-10.033,4.33L16.1,114.786,2.838,120.312A4.612,4.612,0,0,0,0,124.569v6.15a3.075,3.075,0,0,0,3.074,3.074H49.192a3.075,3.075,0,0,0,3.075-3.074v-6.15a4.612,4.612,0,0,0-2.838-4.257" transform="translate(0 -34.362)" fill="#eff2fa"/>
    <path id="Trazado_6918" data-name="Trazado 6918" d="M39.978,105.163H24.606v3.715a3.075,3.075,0,0,1-1.893,2.838l-2.141.893c16.394,4.181,19.406-7.446,19.406-7.446" transform="translate(-6.158 -31.481)" fill="#d29b6e"/>
    <path id="Trazado_6919" data-name="Trazado 6919" d="M7.493,129.064l-6.171-4.908A4.6,4.6,0,0,0,0,127.374v6.15A3.075,3.075,0,0,0,3.074,136.6h6.15v-3.933a4.613,4.613,0,0,0-1.731-3.6" transform="translate(0 -37.167)" fill="#e4eaf6"/>
    <path id="Trazado_6920" data-name="Trazado 6920" d="M70.657,133.532v-6.15a4.6,4.6,0,0,0-1.3-3.2l-6.19,4.889a4.61,4.61,0,0,0-1.731,3.6v3.933h6.149a3.075,3.075,0,0,0,3.074-3.074" transform="translate(-18.391 -37.175)" fill="#e4eaf6"/>
    <path id="Trazado_6921" data-name="Trazado 6921" d="M36.873,132.57h-.461a1.307,1.307,0,0,1-1.307-1.307V120.971h3.074v10.292a1.306,1.306,0,0,1-1.306,1.307" transform="translate(-10.509 -36.213)" fill="#e4eaf6"/>
    <path id="Trazado_6922" data-name="Trazado 6922" d="M32.044,118.041l-8.8-6.6a1.229,1.229,0,0,0-1.761.3l-1.739,2.608L25.14,121.9a1.231,1.231,0,0,0,1.769.246Z" transform="translate(-5.911 -33.287)" fill="#e4eaf6"/>
    <path id="Trazado_6923" data-name="Trazado 6923" d="M37.3,118.041l8.8-6.6a1.229,1.229,0,0,1,1.761.3l1.738,2.608L44.2,121.9a1.231,1.231,0,0,1-1.769.246Z" transform="translate(-11.166 -33.287)" fill="#e4eaf6"/>
    <path id="Trazado_6924" data-name="Trazado 6924" d="M38.541,62.927c-7.687,7.686-22.77,1.537-22.77,13.835l.954,9.059a6.15,6.15,0,0,0,3.137,4.818L28.615,95.5a4.608,4.608,0,0,0,4.479,0l8.753-4.862a6.148,6.148,0,0,0,3.137-4.818l1.1-10.759a17.055,17.055,0,0,0,.07-2.3c-.576-3.913-6.078-6.759-7.615-9.834" transform="translate(-4.721 -18.837)" fill="#f0c087"/>
    <path id="Trazado_6925" data-name="Trazado 6925" d="M15.77,76.762l.954,9.059a6.152,6.152,0,0,0,3.137,4.819L28.615,95.5a4.6,4.6,0,0,0,3.13.468s-4.413-1.338-7.039-8.448c-.8-2.178-1.921-13.707-.961-15.116,1.9-2.785,12.49-3.074,15.619-8.242q-.231-.287-.427-.576c-.011-.015-.023-.031-.034-.047a5.844,5.844,0,0,1-.362-.615C30.854,70.613,15.77,64.464,15.77,76.762" transform="translate(-4.721 -18.837)" fill="#e6af78"/>
    <path id="Trazado_6926" data-name="Trazado 6926" d="M50.492,137.526h-4a2.613,2.613,0,0,0-2.613,2.613v.461h9.223v-.461a2.613,2.613,0,0,0-2.613-2.613" transform="translate(-13.136 -41.169)" fill="#e4eaf6"/>
    <path id="Trazado_6927" data-name="Trazado 6927" d="M177.925,108.864v-8.443H156.214v8.443l10.855,9.649Z" transform="translate(-46.763 -30.061)" fill="#e6af78"/>
    <path id="Trazado_6928" data-name="Trazado 6928" d="M185.95,116.355l-14.926-3.512a2.371,2.371,0,0,1-.626-.252l-12.09,7.052-11.617-7.393a2.4,2.4,0,0,1-1.1.593l-14.925,3.512a4.824,4.824,0,0,0-3.719,4.7V130.5a2.412,2.412,0,0,0,2.412,2.412h57.9a2.412,2.412,0,0,0,2.413-2.412v-9.447a4.826,4.826,0,0,0-3.72-4.7" transform="translate(-38.003 -33.603)" fill="#eff2fa"/>
    <path id="Trazado_6929" data-name="Trazado 6929" d="M156.214,100.421v8.908c13.675,4.927,21.711-7.4,21.711-7.4v-1.5Z" transform="translate(-46.763 -30.061)" fill="#d29b6e"/>
    <path id="Trazado_6930" data-name="Trazado 6930" d="M149.328,60.827l1.051,23.124a7.239,7.239,0,0,0,2.887,5.461l4.988,3.74A7.236,7.236,0,0,0,162.6,94.6h4.825a7.238,7.238,0,0,0,4.342-1.448l4.987-3.74a7.237,7.237,0,0,0,2.887-5.461l1.052-23.124Z" transform="translate(-44.702 -18.209)" fill="#f0c087"/>
    <path id="Trazado_6931" data-name="Trazado 6931" d="M161.39,65.652c4.825,0,12.062-1.206,13.778-4.825h-25.84l1.051,23.124a7.237,7.237,0,0,0,2.887,5.461l4.987,3.74A7.237,7.237,0,0,0,162.6,94.6h2.413c-2.413,0-7.238-4.825-7.238-10.855V69.27a3.852,3.852,0,0,1,3.619-3.619" transform="translate(-44.702 -18.209)" fill="#e6af78"/>
    <path id="Trazado_6932" data-name="Trazado 6932" d="M202.973,127.565l7.816-7.021a4.816,4.816,0,0,1,1.039,2.99v9.446a2.412,2.412,0,0,1-2.412,2.412h-8.443v-3.341a6.033,6.033,0,0,1,2-4.486" transform="translate(-60.162 -36.085)" fill="#e4eaf6"/>
    <path id="Trazado_6933" data-name="Trazado 6933" d="M173.435,137.1H167.4l.754-10.855h4.523Z" transform="translate(-50.113 -37.792)" fill="#5b5d6e"/>
    <path id="Trazado_6934" data-name="Trazado 6934" d="M173.434,122.8H167.4v.7a2.922,2.922,0,0,0,2.922,2.922h.187a2.922,2.922,0,0,0,2.922-2.922Z" transform="translate(-50.113 -36.761)" fill="#515262"/>
    <path id="Trazado_6935" data-name="Trazado 6935" d="M154.5,108.507l11.025,9.923a41.573,41.573,0,0,0-6.9,4.7,1.547,1.547,0,0,1-2.4-.542l-5.18-11.395,1.639-2.459a1.206,1.206,0,0,1,1.81-.227" transform="translate(-45.217 -32.389)" fill="#e4eaf6"/>
    <path id="Trazado_6936" data-name="Trazado 6936" d="M182.733,108.507l-11.025,9.923a41.573,41.573,0,0,1,6.9,4.7,1.547,1.547,0,0,0,2.4-.542l5.18-11.395-1.639-2.459a1.206,1.206,0,0,0-1.81-.227" transform="translate(-51.402 -32.389)" fill="#e4eaf6"/>
    <path id="Trazado_6937" data-name="Trazado 6937" d="M182.144,49.1l1.131,7.991c5.162,1.032,5.906,9.133,6.013,11.446a2.382,2.382,0,0,0,.381,1.178l1.97,3.056s-.674-5.051,2.412-8.443c0,0,1.059-20.052-11.907-15.228" transform="translate(-54.526 -14.475)" fill="#785550"/>
    <path id="Trazado_6938" data-name="Trazado 6938" d="M195.318,81.143l-1.362,5.449a1.45,1.45,0,0,1-2.846-.172l-.7-5.572a2.5,2.5,0,0,1,2.477-2.807h0a2.5,2.5,0,0,1,2.422,3.1" transform="translate(-56.995 -23.362)" fill="#f0c087"/>
    <path id="Trazado_6939" data-name="Trazado 6939" d="M148.889,45l1.785,1.219c-8.067,5.955-6.559,16.17-6.559,16.17,2.412,2.412,2.412,8.443,2.412,8.443l2.412-2.412s-.93-6.969,3.619-9.649c4.221-2.487,7.915-1.207,11.685-1.207,10.1,0,12.928-3.807,12.439-8.443-.254-2.4-3.922-7.4-13.268-7.237-3.772.064-10.856,1.206-14.524,3.116" transform="translate(-43.108 -12.538)" fill="#694b4b"/>
    <path id="Trazado_6940" data-name="Trazado 6940" d="M148.186,58.366a13.252,13.252,0,0,1,2.487-10.29c-8.066,5.955-6.558,16.17-6.558,16.17,2.412,2.412,2.412,8.443,2.412,8.443l2.412-2.412s-.931-6.969,3.619-9.649c4.221-2.488,7.915-1.207,11.685-1.207a29.654,29.654,0,0,0,4.35-.3c-7.78.261-12.366-5.632-20.407-.757" transform="translate(-43.108 -14.392)" fill="#5a4146"/>
    <path id="Trazado_6941" data-name="Trazado 6941" d="M145.961,81.143l1.362,5.449a1.45,1.45,0,0,0,2.846-.172l.7-5.572a2.5,2.5,0,0,0-2.477-2.807h0a2.5,2.5,0,0,0-2.422,3.1" transform="translate(-43.671 -23.362)" fill="#e6af78"/>
    <path id="Trazado_6942" data-name="Trazado 6942" d="M188.758,138.294h-6.031a2.412,2.412,0,0,0-2.412,2.412h10.856a2.412,2.412,0,0,0-2.412-2.412" transform="translate(-53.978 -41.399)" fill="#e4eaf6"/>
    <path id="Trazado_6943" data-name="Trazado 6943" d="M92.564,0C51.2,0,55.786,50.3,55.974,86.755a3.894,3.894,0,0,0,1.908,3.329,69.818,69.818,0,0,0,69.364,0,3.894,3.894,0,0,0,1.908-3.329C129.342,50.3,133.929,0,92.564,0" transform="translate(-16.685)" fill="#694b4b"/>
    <path id="Trazado_6944" data-name="Trazado 6944" d="M89.9.148C51.429,2.3,55.791,51.158,55.975,86.8a3.894,3.894,0,0,0,1.908,3.329,68.561,68.561,0,0,0,34.682,9.223l10.454-73.174" transform="translate(-16.686 -0.044)" fill="#5a4146"/>
    <path id="Trazado_6945" data-name="Trazado 6945" d="M97.552,0C74.032,0,72.4,28.42,72.4,28.42c13.557-2.287,21.887,3.43,35.608-2.287L97.552,99.307a68.561,68.561,0,0,0,34.682-9.223,3.9,3.9,0,0,0,1.908-3.329C134.33,50.3,138.917,0,97.552,0" transform="translate(-21.673)" fill="#694b4b"/>
    <path id="Trazado_6946" data-name="Trazado 6946" d="M151.005,87.969c.163-31.323,3.543-72.843-21.746-83.916-.441,2.291-1.239,8.688.837,12.841,5.227,10.454,10.454,10.454,15.68,18.293C151,63.934,135.789,94.445,130.736,98.6A65.714,65.714,0,0,0,149.1,91.3a3.893,3.893,0,0,0,1.907-3.329" transform="translate(-38.537 -1.213)" fill="#785550"/>
    <path id="Trazado_6947" data-name="Trazado 6947" d="M128.92,126.227,105.6,116.51a5.227,5.227,0,0,1-3.216-4.825V105.37H76.251v6.316a5.227,5.227,0,0,1-3.217,4.825l-23.32,9.717a7.841,7.841,0,0,0-4.825,7.237v10.454a5.228,5.228,0,0,0,5.227,5.227h78.4a5.227,5.227,0,0,0,5.227-5.227V133.464a7.839,7.839,0,0,0-4.825-7.237" transform="translate(-13.438 -31.543)" fill="#e6af78"/>
    <path id="Trazado_6948" data-name="Trazado 6948" d="M128.92,131.124l-22.547-9.394-17.056,7.361L72.261,121.73l-22.547,9.394a7.841,7.841,0,0,0-4.825,7.237v10.454a5.228,5.228,0,0,0,5.227,5.227h78.4a5.227,5.227,0,0,0,5.227-5.227V138.361a7.839,7.839,0,0,0-4.825-7.237" transform="translate(-13.438 -36.44)" fill="#b4e1fa"/>
    <path id="Trazado_6949" data-name="Trazado 6949" d="M112.852,105.37H86.719v6.316A5.227,5.227,0,0,1,83.5,116.51l-3.642,1.518c27.871,7.107,32.992-12.658,32.992-12.658" transform="translate(-23.906 -31.543)" fill="#d29b6e"/>
    <path id="Trazado_6950" data-name="Trazado 6950" d="M57.628,146l-10.489-8.344a7.825,7.825,0,0,0-2.248,5.471v10.454a5.228,5.228,0,0,0,5.227,5.227H60.57v-6.686A7.843,7.843,0,0,0,57.628,146" transform="translate(-13.438 -41.209)" fill="#a0d2f0"/>
    <path id="Trazado_6951" data-name="Trazado 6951" d="M165.007,153.6V143.143a7.823,7.823,0,0,0-2.214-5.438l-10.524,8.311a7.842,7.842,0,0,0-2.943,6.122v6.686h10.454a5.227,5.227,0,0,0,5.227-5.227" transform="translate(-44.702 -41.223)" fill="#a0d2f0"/>
    <path id="Trazado_6952" data-name="Trazado 6952" d="M107.182,151.963h0a2.613,2.613,0,0,1-2.613-2.613v-17.1H109.8v17.1a2.613,2.613,0,0,1-2.613,2.613" transform="translate(-31.303 -39.588)" fill="#a0d2f0"/>
    <path id="Trazado_6953" data-name="Trazado 6953" d="M99.367,127.264,84.409,116.046a2.091,2.091,0,0,0-2.994.513l-2.955,4.433,9.17,12.838a2.09,2.09,0,0,0,3.007.418Z" transform="translate(-23.487 -34.614)" fill="#a0d2f0"/>
    <path id="Trazado_6954" data-name="Trazado 6954" d="M108.3,127.264l14.957-11.218a2.091,2.091,0,0,1,2.994.513l2.955,4.433-9.17,12.838a2.09,2.09,0,0,1-3.007.418Z" transform="translate(-32.42 -34.614)" fill="#a0d2f0"/>
    <path id="Trazado_6955" data-name="Trazado 6955" d="M110.409,33.569C97.342,46.636,71.7,36.182,71.7,57.089l1.623,15.4a10.451,10.451,0,0,0,5.334,8.191l14.879,8.266a7.839,7.839,0,0,0,7.615,0l14.88-8.266a10.455,10.455,0,0,0,5.333-8.191l1.874-18.29a28.717,28.717,0,0,0,.118-3.912c-.978-6.653-10.332-11.491-12.945-16.718" transform="translate(-21.463 -10.049)" fill="#f0c087"/>
    <path id="Trazado_6956" data-name="Trazado 6956" d="M71.7,57.09l1.623,15.4a10.455,10.455,0,0,0,5.334,8.192l14.88,8.266a7.8,7.8,0,0,0,5.321.8s-7.5-2.273-11.966-14.36c-1.368-3.7-3.267-23.3-1.634-25.7,3.229-4.735,21.234-5.227,26.554-14.011q-.394-.489-.727-.98c-.018-.026-.039-.053-.057-.079a9.946,9.946,0,0,1-.616-1.045C97.343,46.636,71.7,36.183,71.7,57.09" transform="translate(-21.463 -10.049)" fill="#e6af78"/>
    <path id="Trazado_6957" data-name="Trazado 6957" d="M132.555,160.387H122.1A2.613,2.613,0,0,0,119.488,163v2.613h15.68V163a2.613,2.613,0,0,0-2.613-2.613" transform="translate(-35.769 -48.013)" fill="#a0d2f0"/>
  </g>
</svg>
