<svg id="Grupo_8807" data-name="Grupo 8807" xmlns="http://www.w3.org/2000/svg" xmlns:xlink="http://www.w3.org/1999/xlink" width="941.408" height="384.089" viewBox="0 0 941.408 384.089">
  <defs>
    <clipPath id="clip-path">
      <rect id="Rectángulo_5627" data-name="Rectángulo 5627" width="941.408" height="384.089" fill="none"/>
    </clipPath>
    <clipPath id="clip-path-2">
      <path id="Rectángulo_5628" data-name="Rectángulo 5628" d="M5.65,0H56.218a5.65,5.65,0,0,1,5.65,5.65V36.512a5.652,5.652,0,0,1-5.652,5.652H5.649A5.649,5.649,0,0,1,0,36.515V5.65A5.65,5.65,0,0,1,5.65,0Z" fill="none"/>
    </clipPath>
  </defs>
  <g id="Grupo_8802" data-name="Grupo 8802">
    <g id="Grupo_8801" data-name="Grupo 8801" clip-path="url(#clip-path)">
      <path id="Trazado_6962" data-name="Trazado 6962" d="M989.335,126.063s-4.533-4.093-3.855-7.918-4.1-7.854-4.137-11.978c-.054-5.436,3.443-7.44,6.78-12.21s3.787-7.7,7.992-7.157,4.838,6.5,7.923,8.339,6.026,2.665,7.108,5.69-2.346,9.195-.754,12.081,2.126,4.269,1.166,7.215-6.088,6.353-6.088,6.353Z" transform="translate(-144.173 -12.743)" fill="#deecf1"/>
      <path id="Trazado_6963" data-name="Trazado 6963" d="M1000.412,153.161h-4.068c-6.224,0-11.4-4.357-11.877-10l-.785-9.108a3.622,3.622,0,0,1,3.8-3.744h21.789a3.622,3.622,0,0,1,3.8,3.744l-.777,9.108c-.488,5.647-5.661,10-11.885,10" transform="translate(-144.515 -19.144)" fill="#fff1ed"/>
      <path id="Trazado_6964" data-name="Trazado 6964" d="M135.449,69.22a68.055,68.055,0,0,0,8-9.523c3.81-5.524,5.943-16.57,11.638-19.428s9.885-2.666,11.6,0,.762,13.143-6.286,19.238a130.253,130.253,0,0,1-16,11.428c-.572.38-8.952-1.715-8.952-1.715" transform="translate(-19.899 -5.612)" fill="#deecf1"/>
      <path id="Trazado_6965" data-name="Trazado 6965" d="M137.533,76.223s-17.126,1.222-21.939-4.689S109.485,57.6,102.86,54.811s-16.466-4.8-10.6-9.865,15.445-7.9,23.769-2.552,8.045,9.2,11.591,14.431,5.1,16.652,5.1,16.652Z" transform="translate(-13.291 -5.806)" fill="#deecf1"/>
      <path id="Trazado_6966" data-name="Trazado 6966" d="M140.567,61.148s5.524-5.9,5.714-12.571-4.762-13.142-5.714-17.9,3.047-13.332,4-19.427-7.238-16.761-12.19-7.809-8.952,16.761-8.762,23.427,1.9,9.143,4.381,18.284.762,14.476,3.238,18.666,9.333-2.667,9.333-2.667" transform="translate(-18.16 0)" fill="#deecf1"/>
      <path id="Trazado_6967" data-name="Trazado 6967" d="M134.81,102.3h-5.216c-7.977,0-14.612-5.585-15.233-12.824l-1-11.676a4.646,4.646,0,0,1,4.877-4.8h27.927a4.647,4.647,0,0,1,4.878,4.8l-1,11.676c-.621,7.239-7.256,12.824-15.233,12.824" transform="translate(-16.652 -10.725)" fill="#fff1ed"/>
      <path id="Trazado_6968" data-name="Trazado 6968" d="M794.66,157.728a7.683,7.683,0,0,0-7.674,7.674V363.883a7.683,7.683,0,0,0,7.674,7.674h207.571a7.683,7.683,0,0,0,7.672-7.674V165.4a7.683,7.683,0,0,0-7.672-7.674Zm207.571,215.354H794.66a9.209,9.209,0,0,1-9.2-9.2V165.4a9.209,9.209,0,0,1,9.2-9.2h207.571a9.211,9.211,0,0,1,9.2,9.2V363.883a9.211,9.211,0,0,1-9.2,9.2" transform="translate(-115.395 -22.949)" fill="#deb2a6"/>
      <rect id="Rectángulo_5607" data-name="Rectángulo 5607" width="224.442" height="1.524" transform="translate(670.828 161.74)" fill="#deb2a6"/>
      <rect id="Rectángulo_5608" data-name="Rectángulo 5608" width="224.442" height="1.524" transform="translate(670.828 193.157)" fill="#deb2a6"/>
      <rect id="Rectángulo_5609" data-name="Rectángulo 5609" width="224.442" height="1.524" transform="translate(670.828 224.575)" fill="#deb2a6"/>
      <rect id="Rectángulo_5610" data-name="Rectángulo 5610" width="224.442" height="1.524" transform="translate(670.828 256.902)" fill="#deb2a6"/>
      <rect id="Rectángulo_5611" data-name="Rectángulo 5611" width="1.524" height="158.854" transform="translate(782.286 134.017)" fill="#deb2a6"/>
      <path id="Trazado_6969" data-name="Trazado 6969" d="M986.539,181.589h-11.23a1.428,1.428,0,1,1,0-2.857h11.23a1.428,1.428,0,1,1,0,2.857" transform="translate(-143.076 -26.258)" fill="#deb2a6"/>
      <path id="Trazado_6970" data-name="Trazado 6970" d="M986.539,219.964h-11.23a1.428,1.428,0,1,1,0-2.857h11.23a1.428,1.428,0,1,1,0,2.857" transform="translate(-143.076 -31.896)" fill="#deb2a6"/>
      <path id="Trazado_6971" data-name="Trazado 6971" d="M986.539,257.445h-11.23a1.429,1.429,0,1,1,0-2.857h11.23a1.429,1.429,0,1,1,0,2.857" transform="translate(-143.076 -37.403)" fill="#deb2a6"/>
      <path id="Trazado_6972" data-name="Trazado 6972" d="M986.539,295.82h-11.23a1.429,1.429,0,1,1,0-2.857h11.23a1.429,1.429,0,1,1,0,2.857" transform="translate(-143.076 -43.04)" fill="#deb2a6"/>
      <path id="Trazado_6973" data-name="Trazado 6973" d="M846.833,181.589h11.238a1.428,1.428,0,0,0,0-2.857H846.833a1.428,1.428,0,1,0,0,2.857" transform="translate(-124.201 -26.258)" fill="#deb2a6"/>
      <path id="Trazado_6974" data-name="Trazado 6974" d="M846.833,219.964h11.238a1.428,1.428,0,0,0,0-2.857H846.833a1.428,1.428,0,1,0,0,2.857" transform="translate(-124.201 -31.896)" fill="#deb2a6"/>
      <path id="Trazado_6975" data-name="Trazado 6975" d="M846.833,257.445h11.238a1.429,1.429,0,0,0,0-2.857H846.833a1.429,1.429,0,1,0,0,2.857" transform="translate(-124.201 -37.403)" fill="#deb2a6"/>
      <path id="Trazado_6976" data-name="Trazado 6976" d="M846.833,295.82h11.238a1.429,1.429,0,0,0,0-2.857H846.833a1.429,1.429,0,1,0,0,2.857" transform="translate(-124.201 -43.04)" fill="#deb2a6"/>
      <path id="Trazado_6977" data-name="Trazado 6977" d="M92.34,107.977a7.683,7.683,0,0,0-7.673,7.674V314.132a7.683,7.683,0,0,0,7.673,7.674H299.909a7.684,7.684,0,0,0,7.674-7.674V115.651a7.684,7.684,0,0,0-7.674-7.674ZM299.909,323.33H92.34a9.209,9.209,0,0,1-9.2-9.2V115.651a9.209,9.209,0,0,1,9.2-9.2H299.909a9.209,9.209,0,0,1,9.2,9.2V314.132a9.209,9.209,0,0,1-9.2,9.2" transform="translate(-12.215 -15.639)" fill="#deb2a6"/>
      <rect id="Rectángulo_5612" data-name="Rectángulo 5612" width="224.44" height="1.524" transform="translate(71.69 119.298)" fill="#deb2a6"/>
      <rect id="Rectángulo_5613" data-name="Rectángulo 5613" width="224.44" height="1.524" transform="translate(71.69 150.715)" fill="#deb2a6"/>
      <rect id="Rectángulo_5614" data-name="Rectángulo 5614" width="224.44" height="1.524" transform="translate(71.69 182.133)" fill="#deb2a6"/>
      <rect id="Rectángulo_5615" data-name="Rectángulo 5615" width="224.44" height="1.524" transform="translate(71.69 212.059)" fill="#deb2a6"/>
      <rect id="Rectángulo_5616" data-name="Rectángulo 5616" width="1.524" height="158.854" transform="translate(183.149 91.575)" fill="#deb2a6"/>
      <path id="Trazado_6978" data-name="Trazado 6978" d="M284.223,131.837H272.989a1.428,1.428,0,1,1,0-2.857h11.234a1.428,1.428,0,1,1,0,2.857" transform="translate(-39.896 -18.949)" fill="#deb2a6"/>
      <path id="Trazado_6979" data-name="Trazado 6979" d="M284.223,170.213H272.989a1.428,1.428,0,1,1,0-2.857h11.234a1.428,1.428,0,1,1,0,2.857" transform="translate(-39.896 -24.587)" fill="#deb2a6"/>
      <path id="Trazado_6980" data-name="Trazado 6980" d="M284.223,208.588H272.989a1.428,1.428,0,1,1,0-2.857h11.234a1.428,1.428,0,1,1,0,2.857" transform="translate(-39.896 -30.225)" fill="#deb2a6"/>
      <path id="Trazado_6981" data-name="Trazado 6981" d="M284.223,242.5H272.989a1.428,1.428,0,1,1,0-2.857h11.234a1.428,1.428,0,1,1,0,2.857" transform="translate(-39.896 -35.207)" fill="#deb2a6"/>
      <path id="Trazado_6982" data-name="Trazado 6982" d="M144.514,131.837h11.235a1.428,1.428,0,0,0,0-2.857H144.514a1.428,1.428,0,1,0,0,2.857" transform="translate(-21.021 -18.949)" fill="#deb2a6"/>
      <path id="Trazado_6983" data-name="Trazado 6983" d="M144.514,170.213h11.235a1.428,1.428,0,0,0,0-2.857H144.514a1.428,1.428,0,1,0,0,2.857" transform="translate(-21.021 -24.587)" fill="#deb2a6"/>
      <path id="Trazado_6984" data-name="Trazado 6984" d="M144.514,208.588h11.235a1.428,1.428,0,0,0,0-2.857H144.514a1.428,1.428,0,1,0,0,2.857" transform="translate(-21.021 -30.225)" fill="#deb2a6"/>
      <path id="Trazado_6985" data-name="Trazado 6985" d="M144.514,243.39h11.235a1.428,1.428,0,0,0,0-2.857H144.514a1.428,1.428,0,1,0,0,2.857" transform="translate(-21.021 -35.338)" fill="#deb2a6"/>
      <path id="Trazado_6986" data-name="Trazado 6986" d="M140.742,47.584c-.345-4.087-2.332-7.563-3.881-11.274a18.2,18.2,0,0,1-.428-13.888c1.406-3.609,3.636-7.039,3.116-11.07-.062-.479-.825-.485-.762,0,.526,4.078-1.849,7.5-3.2,11.163a18.164,18.164,0,0,0-.454,11.229c1.1,3.853,3.411,7.243,4.393,11.134a17.852,17.852,0,0,1-1.735,12.882c-.235.432.422.816.658.385a18.792,18.792,0,0,0,2.3-10.561" transform="translate(-19.753 -1.615)" fill="#b2d1d9"/>
      <path id="Trazado_6987" data-name="Trazado 6987" d="M126.391,64.652c-4.433-3.3-6.779-8.553-11.079-11.983a12.284,12.284,0,0,0-5.6-2.637c-1.28-.219-2.59-.219-3.864-.479a20.639,20.639,0,0,1-4.717-1.8c-.44-.212-.827.444-.385.657a19.956,19.956,0,0,0,6.606,2.121A13.515,13.515,0,0,1,115.7,54c3.8,3.466,6.135,8.206,10.3,11.308.394.293.774-.369.385-.658" transform="translate(-14.772 -7.009)" fill="#b2d1d9"/>
      <path id="Trazado_6988" data-name="Trazado 6988" d="M161.245,46.837a23.582,23.582,0,0,1-7.121,10.83c-2.668,2.273-6.487,3.782-7.253,7.57-.1.479.638.683.735.2.513-2.54,2.519-3.943,4.524-5.333a27.144,27.144,0,0,0,4.29-3.569,24.56,24.56,0,0,0,5.559-9.5c.149-.469-.585-.669-.734-.2" transform="translate(-21.576 -6.842)" fill="#b2d1d9"/>
      <path id="Trazado_6989" data-name="Trazado 6989" d="M990.28,108.93c-.708-1.44-1.485-2.845-2.316-4.219a.38.38,0,0,0-.655.384q1.246,2.061,2.308,4.22c.221.439.876.054.663-.385" transform="translate(-145.041 -15.357)" fill="#b2d1d9"/>
      <path id="Trazado_6990" data-name="Trazado 6990" d="M998.912,94.371c-.046-.485-.808-.489-.762,0,.114,1.215.267,2.424.473,3.628.076.483.807.278.731-.2-.19-1.137-.335-2.279-.442-3.426" transform="translate(-146.642 -13.811)" fill="#b2d1d9"/>
      <path id="Trazado_6991" data-name="Trazado 6991" d="M1010.432,108.658q-.89,2.671-1.783,5.34c-.16.466.579.665.732.2.594-1.78,1.2-3.56,1.79-5.339.153-.467-.578-.666-.739-.2" transform="translate(-148.182 -15.925)" fill="#b2d1d9"/>
      <path id="Trazado_6992" data-name="Trazado 6992" d="M998.636,118.826q-.308,2.476-.754,4.932c-.084.479.655.685.739.2q.457-2.558.777-5.135c.061-.485-.7-.48-.762,0" transform="translate(-146.602 -17.404)" fill="#b2d1d9"/>
      <path id="Trazado_6993" data-name="Trazado 6993" d="M458.221,87.906a26.62,26.62,0,1,1-26.62-26.62,26.62,26.62,0,0,1,26.62,26.62" transform="translate(-59.498 -9.004)" fill="#fff1ed"/>
      <path id="Trazado_6994" data-name="Trazado 6994" d="M431.47,61.917a25.857,25.857,0,1,0,25.858,25.858A25.887,25.887,0,0,0,431.47,61.917m0,53.239a27.381,27.381,0,1,1,27.382-27.381,27.412,27.412,0,0,1-27.382,27.381" transform="translate(-59.366 -8.873)" fill="#deb2a6"/>
      <path id="Trazado_6995" data-name="Trazado 6995" d="M437.922,92.129a2.1,2.1,0,1,0-2.1,2.1,2.1,2.1,0,0,0,2.1-2.1" transform="translate(-63.72 -13.227)" fill="#deb2a6"/>
      <path id="Trazado_6996" data-name="Trazado 6996" d="M436.055,90.286a.761.761,0,0,1-.762-.762V77.335a.762.762,0,0,1,1.524,0v12.19a.762.762,0,0,1-.762.762" transform="translate(-63.951 -11.25)" fill="#deb2a6"/>
      <path id="Trazado_6997" data-name="Trazado 6997" d="M456.946,93.121H436.055a.761.761,0,1,1,0-1.523h20.891a.761.761,0,1,1,0,1.523" transform="translate(-63.951 -13.457)" fill="#deb2a6"/>
      <path id="Trazado_6998" data-name="Trazado 6998" d="M591.48,87.906a26.619,26.619,0,1,1-26.62-26.62,26.62,26.62,0,0,1,26.62,26.62" transform="translate(-79.075 -9.004)" fill="#fff1ed"/>
      <path id="Trazado_6999" data-name="Trazado 6999" d="M564.73,61.917a25.857,25.857,0,1,0,25.857,25.858A25.887,25.887,0,0,0,564.73,61.917m0,53.239a27.381,27.381,0,1,1,27.381-27.381,27.412,27.412,0,0,1-27.381,27.381" transform="translate(-78.944 -8.873)" fill="#deb2a6"/>
      <path id="Trazado_7000" data-name="Trazado 7000" d="M571.181,92.129a2.1,2.1,0,1,0-2.1,2.1,2.1,2.1,0,0,0,2.1-2.1" transform="translate(-83.298 -13.227)" fill="#deb2a6"/>
      <path id="Trazado_7001" data-name="Trazado 7001" d="M724.74,87.906a26.619,26.619,0,1,1-26.619-26.62,26.619,26.619,0,0,1,26.619,26.62" transform="translate(-98.653 -9.004)" fill="#fff1ed"/>
      <path id="Trazado_7002" data-name="Trazado 7002" d="M697.989,61.917a25.857,25.857,0,1,0,25.858,25.858,25.887,25.887,0,0,0-25.858-25.858m0,53.239a27.381,27.381,0,1,1,27.382-27.381,27.412,27.412,0,0,1-27.382,27.381" transform="translate(-98.522 -8.873)" fill="#deb2a6"/>
      <path id="Trazado_7003" data-name="Trazado 7003" d="M704.442,92.129a2.1,2.1,0,1,0-2.1,2.1,2.1,2.1,0,0,0,2.1-2.1" transform="translate(-102.876 -13.227)" fill="#deb2a6"/>
      <path id="Trazado_7004" data-name="Trazado 7004" d="M702.574,103.351a.761.761,0,0,1-.762-.762V89.982l17.731-11.647a.762.762,0,0,1,.837,1.274L703.336,90.8V102.59a.761.761,0,0,1-.762.762" transform="translate(-103.106 -11.49)" fill="#deb2a6"/>
      <path id="Trazado_7005" data-name="Trazado 7005" d="M578.725,109.369a.758.758,0,0,1-.626-.328L566.729,92.7,554.6,90.65a.762.762,0,0,1,.253-1.5L567.613,91.3l11.736,16.872a.761.761,0,0,1-.191,1.06.752.752,0,0,1-.433.137" transform="translate(-81.385 -13.096)" fill="#deb2a6"/>
      <path id="Trazado_7006" data-name="Trazado 7006" d="M923.827,173.151c.838-.178,8.137-1.832,15.138,1.59s7.162,11.457,8.152,14.314,3.36,2.639,4.8,6.588a11.841,11.841,0,0,1-1.043,9.373c-1.143,1.563-.572,5.89-3.047,7.868s-16.952,3.551-20.669,3.146a13.468,13.468,0,0,1-8.853-5.452c-1.333-2.191-5.79.071-7.5-5.562s1.79-6.992,1.79-15.484c0-6.135,3.619-14.761,11.238-16.38" transform="translate(-133.74 -25.357)" fill="#4e372b"/>
      <path id="Trazado_7007" data-name="Trazado 7007" d="M615.7,179.7s.815,4.635.815,5.777a40.173,40.173,0,0,0,.578,4.317s1.324-3.556,1.391-3.746,1.495-5.967,1.495-6.349.987-.572-.322-.572a26.83,26.83,0,0,0-3.957.572" transform="translate(-90.454 -26.316)" fill="#704d3e"/>
      <path id="Trazado_7008" data-name="Trazado 7008" d="M325.652,186.14c-.06-.306.713-8.98-5.6-14.154s-18.117-4.067-21.648,0-3.6,7.039-6.812,9.171a8.278,8.278,0,0,0-3.531,8.443c.642,3.46,2.355,4.387,2.355,7.276s-3.638,4.815-2.355,8.132,5.457,4.835,6.954,3.649,1.093-2.471,5.736-1.295,7.221,1.356,9.677.518,15.222-21.738,15.222-21.738" transform="translate(-42.28 -24.756)" fill="#4e372b"/>
      <path id="Trazado_7009" data-name="Trazado 7009" d="M301.705,177.253c-3.989,4.519-3.043,18.272-1.919,24.333.42,2.271,6.248,9.134,9.305,9.372,4.695.365,12.81-4.325,14.293-7.6.725-1.6,4.327-17.319,2.244-22.316s-12.934-8.667-17.518-7.726c-4.187.862.682-4.093-6.4,3.936" transform="translate(-43.9 -25.355)" fill="#ffbd9e"/>
      <path id="Trazado_7010" data-name="Trazado 7010" d="M309.983,212.063l2.278,12.036,6.059,4.637,8.9-1.355-1.5-22.237s-6.5,2.665-7.651,3.239-8.092,3.68-8.092,3.68" transform="translate(-45.541 -30.139)" fill="#ffbd9e"/>
      <path id="Trazado_7011" data-name="Trazado 7011" d="M303.364,194.747a.738.738,0,0,0-.508-.405c-.765-.148-.651,1.61-.311,1.932a.48.48,0,0,0,.413.1c.215-.039.49-.169.5-.42a3.441,3.441,0,0,0-.035-1.063.8.8,0,0,0-.058-.146" transform="translate(-44.41 -28.55)" fill="#4e372b"/>
      <path id="Trazado_7012" data-name="Trazado 7012" d="M318.471,195.346a1.636,1.636,0,0,0-.174-.932c-.368-.476-.986.005-1.118.428a2.145,2.145,0,0,0-.043.812,1.012,1.012,0,0,0,.178.576.643.643,0,0,0,.965.036,1.387,1.387,0,0,0,.193-.92" transform="translate(-46.589 -28.533)" fill="#4e372b"/>
      <path id="Trazado_7013" data-name="Trazado 7013" d="M310.156,202.239a2.376,2.376,0,0,1-.99-1.066c-.287-.613-.076-.988.1-1.585.256-.87.532-1.733.823-2.592.176-.524-.65-.747-.827-.228-.245.728-.481,1.456-.7,2.192a5.509,5.509,0,0,0-.467,1.833,3.34,3.34,0,0,0,1.631,2.186.428.428,0,0,0,.432-.739" transform="translate(-45.262 -28.865)" fill="#f7a37c"/>
      <path id="Trazado_7014" data-name="Trazado 7014" d="M320.683,211.934a32.785,32.785,0,0,1-8.957,4.746c-.527.156-.179.938.344.784a33.556,33.556,0,0,0,9.144-4.859c.456-.31-.077-.978-.531-.671" transform="translate(-45.759 -31.125)" fill="#f7a37c"/>
      <path id="Trazado_7015" data-name="Trazado 7015" d="M306.688,206.794c.572-.412,7-.676,7.133-.181.233.879-1.341,2.446-3.612,2.568-2.973.159-3.776-2.2-3.521-2.387" transform="translate(-45.05 -30.315)" fill="#fff"/>
      <path id="Trazado_7016" data-name="Trazado 7016" d="M314.935,184.272c-3.334-3.295-9.06.856-16.19.749-1.678-.026-5.242-1.606-5.242-1.606l2.818-3.638a18.085,18.085,0,0,1,1.569-2.924,44.455,44.455,0,0,1,5.35-4.921c.428-.286.642-1.427,2-1s5.362.278,7.774,1.728,8.347,1.91,9.416,2.766a15.209,15.209,0,0,1,2.71,3.567,14.646,14.646,0,0,1,1.356,7.489,65.258,65.258,0,0,1-2.5,11.7,14.42,14.42,0,0,0-.607,3.15s-1.4-1.015-1.39-2.2c.049-4.642,1.64-7.339,1-9.651s-1.783,1-8.062-5.206" transform="translate(-43.12 -25.099)" fill="#4e372b"/>
      <path id="Trazado_7017" data-name="Trazado 7017" d="M305.109,186s-1.646.422-4.427,2.883-2.145,7.594-2.145,7.594-2.883-9.305-2.777-9.626.963-3.943,1.6-3.63,3.232-.758,4.559-.651,3.185,3.43,3.185,3.43" transform="translate(-43.451 -26.821)" fill="#4e372b"/>
      <path id="Trazado_7018" data-name="Trazado 7018" d="M314.038,184.711a23.1,23.1,0,0,1-6.075,2.552c-3.844,1.071-5.252.846-7.33,2.029s-.686-1.715-.686-1.715,4.726-4.929,6.054-5.243,2.825-1.6,4.43-1.276,3.606,3.653,3.606,3.653" transform="translate(-43.999 -26.592)" fill="#4e372b"/>
      <path id="Trazado_7019" data-name="Trazado 7019" d="M308.493,222.747s-14.051,5.858-17.225,8.575-1.651,20.875,0,30.907,2.921,14.984,2.984,20.062-2.1,7.745,1.461,8.888,4.571,1.524,16.253,2.285,15.364-.38,18.919,0,5.714-1.651,5.841-4.571,8.127-46.093,7.619-51.553-4.7-7.238-9.4-9.9a67.806,67.806,0,0,0-11.233-4.69s-3.878,4.182-7.56,4.309-7.662-4.309-7.662-4.309" transform="translate(-42.519 -32.725)" fill="#fff1ed"/>
      <path id="Trazado_7020" data-name="Trazado 7020" d="M325.652,186.14c-.06-.306.713-8.98-5.6-14.154s-18.117-4.067-21.648,0-3.6,7.039-6.812,9.171a8.278,8.278,0,0,0-3.531,8.443c.642,3.46,2.355,4.387,2.355,7.276s-3.638,4.815-2.355,8.132,5.457,4.835,6.954,3.649,1.093-2.471,5.736-1.295,7.221,1.356,9.677.518,15.222-21.738,15.222-21.738" transform="translate(-42.28 -24.756)" fill="#4e372b"/>
      <path id="Trazado_7021" data-name="Trazado 7021" d="M301.705,177.253c-3.989,4.519-3.043,18.272-1.919,24.333.42,2.271,6.248,9.134,9.305,9.372,4.695.365,12.81-4.325,14.293-7.6.725-1.6,4.327-17.319,2.244-22.316s-12.934-8.667-17.518-7.726c-4.187.862.682-4.093-6.4,3.936" transform="translate(-43.9 -25.355)" fill="#ffbd9e"/>
      <path id="Trazado_7022" data-name="Trazado 7022" d="M309.983,212.063l2.278,12.036,6.059,4.637,8.9-1.355-1.5-22.237s-6.5,2.665-7.651,3.239-8.092,3.68-8.092,3.68" transform="translate(-45.541 -30.139)" fill="#ffbd9e"/>
      <path id="Trazado_7023" data-name="Trazado 7023" d="M303.364,194.747a.738.738,0,0,0-.508-.405c-.765-.148-.651,1.61-.311,1.932a.48.48,0,0,0,.413.1c.215-.039.49-.169.5-.42a3.441,3.441,0,0,0-.035-1.063.8.8,0,0,0-.058-.146" transform="translate(-44.41 -28.55)" fill="#4e372b"/>
      <path id="Trazado_7024" data-name="Trazado 7024" d="M318.471,195.346a1.636,1.636,0,0,0-.174-.932c-.368-.476-.986.005-1.118.428a2.145,2.145,0,0,0-.043.812,1.012,1.012,0,0,0,.178.576.643.643,0,0,0,.965.036,1.387,1.387,0,0,0,.193-.92" transform="translate(-46.589 -28.533)" fill="#4e372b"/>
      <path id="Trazado_7025" data-name="Trazado 7025" d="M310.156,202.239a2.376,2.376,0,0,1-.99-1.066c-.287-.613-.076-.988.1-1.585.256-.87.532-1.733.823-2.592.176-.524-.65-.747-.827-.228-.245.728-.481,1.456-.7,2.192a5.509,5.509,0,0,0-.467,1.833,3.34,3.34,0,0,0,1.631,2.186.428.428,0,0,0,.432-.739" transform="translate(-45.262 -28.865)" fill="#f7a37c"/>
      <path id="Trazado_7026" data-name="Trazado 7026" d="M320.683,211.934a32.785,32.785,0,0,1-8.957,4.746c-.527.156-.179.938.344.784a33.556,33.556,0,0,0,9.144-4.859c.456-.31-.077-.978-.531-.671" transform="translate(-45.759 -31.125)" fill="#f7a37c"/>
      <path id="Trazado_7027" data-name="Trazado 7027" d="M306.688,206.794c.572-.412,7-.676,7.133-.181.233.879-1.341,2.446-3.612,2.568-2.973.159-3.776-2.2-3.521-2.387" transform="translate(-45.05 -30.315)" fill="#fff"/>
      <path id="Trazado_7028" data-name="Trazado 7028" d="M314.935,184.272c-3.334-3.295-9.06.856-16.19.749-1.678-.026-5.242-1.606-5.242-1.606l2.818-3.638a18.085,18.085,0,0,1,1.569-2.924,44.455,44.455,0,0,1,5.35-4.921c.428-.286.642-1.427,2-1s5.362.278,7.774,1.728,8.347,1.91,9.416,2.766a15.209,15.209,0,0,1,2.71,3.567,14.646,14.646,0,0,1,1.356,7.489,65.258,65.258,0,0,1-2.5,11.7,14.42,14.42,0,0,0-.607,3.15s-1.4-1.015-1.39-2.2c.049-4.642,1.64-7.339,1-9.651s-1.783,1-8.062-5.206" transform="translate(-43.12 -25.099)" fill="#4e372b"/>
      <path id="Trazado_7029" data-name="Trazado 7029" d="M305.109,186s-1.646.422-4.427,2.883-2.145,7.594-2.145,7.594-2.883-9.305-2.777-9.626.963-3.943,1.6-3.63,3.232-.758,4.559-.651,3.185,3.43,3.185,3.43" transform="translate(-43.451 -26.821)" fill="#4e372b"/>
      <path id="Trazado_7030" data-name="Trazado 7030" d="M314.038,184.711a23.1,23.1,0,0,1-6.075,2.552c-3.844,1.071-5.252.846-7.33,2.029s-.686-1.715-.686-1.715,4.726-4.929,6.054-5.243,2.825-1.6,4.43-1.276,3.606,3.653,3.606,3.653" transform="translate(-43.999 -26.592)" fill="#4e372b"/>
      <path id="Trazado_7031" data-name="Trazado 7031" d="M308.493,222.747s-14.051,5.858-17.225,8.575-1.651,20.875,0,30.907,2.921,14.984,2.984,20.062-2.1,7.745,1.461,8.888,4.571,1.524,16.253,2.285,15.364-.38,18.919,0,5.714-1.651,5.841-4.571,8.127-46.093,7.619-51.553-4.7-7.238-9.4-9.9a67.806,67.806,0,0,0-11.233-4.69s-3.878,4.182-7.56,4.309-7.662-4.309-7.662-4.309" transform="translate(-42.519 -32.725)" fill="#fff1ed"/>
      <path id="Trazado_7032" data-name="Trazado 7032" d="M325.652,186.14c-.06-.306.713-8.98-5.6-14.154s-18.117-4.067-21.648,0-3.6,7.039-6.812,9.171a8.278,8.278,0,0,0-3.531,8.443c.642,3.46,2.355,4.387,2.355,7.276s-3.638,4.815-2.355,8.132,5.457,4.835,6.954,3.649,1.093-2.471,5.736-1.295,7.221,1.356,9.677.518,15.222-21.738,15.222-21.738" transform="translate(-42.28 -24.756)" fill="#4e372b"/>
      <path id="Trazado_7033" data-name="Trazado 7033" d="M301.705,177.253c-3.989,4.519-3.043,18.272-1.919,24.333.42,2.271,6.248,9.134,9.305,9.372,4.695.365,12.81-4.325,14.293-7.6.725-1.6,4.327-17.319,2.244-22.316s-12.934-8.667-17.518-7.726c-4.187.862.682-4.093-6.4,3.936" transform="translate(-43.9 -25.355)" fill="#ffbd9e"/>
      <path id="Trazado_7034" data-name="Trazado 7034" d="M309.983,212.063l2.278,12.036,6.059,4.637,8.9-1.355-1.5-22.237s-6.5,2.665-7.651,3.239-8.092,3.68-8.092,3.68" transform="translate(-45.541 -30.139)" fill="#ffbd9e"/>
      <path id="Trazado_7035" data-name="Trazado 7035" d="M303.364,194.747a.738.738,0,0,0-.508-.405c-.765-.148-.651,1.61-.311,1.932a.48.48,0,0,0,.413.1c.215-.039.49-.169.5-.42a3.441,3.441,0,0,0-.035-1.063.8.8,0,0,0-.058-.146" transform="translate(-44.41 -28.55)" fill="#4e372b"/>
      <path id="Trazado_7036" data-name="Trazado 7036" d="M318.471,195.346a1.636,1.636,0,0,0-.174-.932c-.368-.476-.986.005-1.118.428a2.145,2.145,0,0,0-.043.812,1.012,1.012,0,0,0,.178.576.643.643,0,0,0,.965.036,1.387,1.387,0,0,0,.193-.92" transform="translate(-46.589 -28.533)" fill="#4e372b"/>
      <path id="Trazado_7037" data-name="Trazado 7037" d="M310.156,202.239a2.376,2.376,0,0,1-.99-1.066c-.287-.613-.076-.988.1-1.585.256-.87.532-1.733.823-2.592.176-.524-.65-.747-.827-.228-.245.728-.481,1.456-.7,2.192a5.509,5.509,0,0,0-.467,1.833,3.34,3.34,0,0,0,1.631,2.186.428.428,0,0,0,.432-.739" transform="translate(-45.262 -28.865)" fill="#f7a37c"/>
      <path id="Trazado_7038" data-name="Trazado 7038" d="M320.683,211.934a32.785,32.785,0,0,1-8.957,4.746c-.527.156-.179.938.344.784a33.556,33.556,0,0,0,9.144-4.859c.456-.31-.077-.978-.531-.671" transform="translate(-45.759 -31.125)" fill="#f7a37c"/>
      <path id="Trazado_7039" data-name="Trazado 7039" d="M306.688,206.794c.572-.412,7-.676,7.133-.181.233.879-1.341,2.446-3.612,2.568-2.973.159-3.776-2.2-3.521-2.387" transform="translate(-45.05 -30.315)" fill="#fff"/>
      <path id="Trazado_7040" data-name="Trazado 7040" d="M314.935,184.272c-3.334-3.295-9.06.856-16.19.749-1.678-.026-5.242-1.606-5.242-1.606l2.818-3.638a18.085,18.085,0,0,1,1.569-2.924,44.455,44.455,0,0,1,5.35-4.921c.428-.286.642-1.427,2-1s5.362.278,7.774,1.728,8.347,1.91,9.416,2.766a15.209,15.209,0,0,1,2.71,3.567,14.646,14.646,0,0,1,1.356,7.489,65.258,65.258,0,0,1-2.5,11.7,14.42,14.42,0,0,0-.607,3.15s-1.4-1.015-1.39-2.2c.049-4.642,1.64-7.339,1-9.651s-1.783,1-8.062-5.206" transform="translate(-43.12 -25.099)" fill="#4e372b"/>
      <path id="Trazado_7041" data-name="Trazado 7041" d="M305.109,186s-1.646.422-4.427,2.883-2.145,7.594-2.145,7.594-2.883-9.305-2.777-9.626.963-3.943,1.6-3.63,3.232-.758,4.559-.651,3.185,3.43,3.185,3.43" transform="translate(-43.451 -26.821)" fill="#4e372b"/>
      <path id="Trazado_7042" data-name="Trazado 7042" d="M314.038,184.711a23.1,23.1,0,0,1-6.075,2.552c-3.844,1.071-5.252.846-7.33,2.029s-.686-1.715-.686-1.715,4.726-4.929,6.054-5.243,2.825-1.6,4.43-1.276,3.606,3.653,3.606,3.653" transform="translate(-43.999 -26.592)" fill="#4e372b"/>
      <path id="Trazado_7043" data-name="Trazado 7043" d="M308.493,222.747s-14.051,5.858-17.225,8.575-1.651,20.875,0,30.907,2.921,14.984,2.984,20.062-2.1,7.745,1.461,8.888,4.571,1.524,16.253,2.285,15.364-.38,18.919,0,5.714-1.651,5.841-4.571,8.127-46.093,7.619-51.553-4.7-7.238-9.4-9.9a67.806,67.806,0,0,0-11.233-4.69s-3.878,4.182-7.56,4.309-7.662-4.309-7.662-4.309" transform="translate(-42.519 -32.725)" fill="#fff1ed"/>
      <path id="Trazado_7044" data-name="Trazado 7044" d="M329.953,231.431c.762-.463,20.316-.194,23.109,4.516s1.017,35.122,0,44.813-1.777,17.767-1.777,17.767l-54.914-1.346-14.162-3.365,7.111-57.869Z" transform="translate(-41.461 -33.977)" fill="#7d6d6c"/>
      <path id="Trazado_7045" data-name="Trazado 7045" d="M325.652,186.14c-.06-.306.713-8.98-5.6-14.154s-18.117-4.067-21.648,0-3.6,7.039-6.812,9.171a8.278,8.278,0,0,0-3.531,8.443c.642,3.46,2.355,4.387,2.355,7.276s-3.638,4.815-2.355,8.132,5.457,4.835,6.954,3.649,1.093-2.471,5.736-1.295,7.221,1.356,9.677.518,15.222-21.738,15.222-21.738" transform="translate(-42.28 -24.756)" fill="#4e372b"/>
      <path id="Trazado_7046" data-name="Trazado 7046" d="M301.705,177.253c-3.989,4.519-3.043,18.272-1.919,24.333.42,2.271,6.248,9.134,9.305,9.372,4.695.365,12.81-4.325,14.293-7.6.725-1.6,4.327-17.319,2.244-22.316s-12.934-8.667-17.518-7.726c-4.187.862.682-4.093-6.4,3.936" transform="translate(-43.9 -25.355)" fill="#ffbd9e"/>
      <path id="Trazado_7047" data-name="Trazado 7047" d="M309.983,212.063l2.278,12.036,4.486,7.862,10.476-4.58-1.5-22.237s-6.5,2.665-7.651,3.239-8.092,3.68-8.092,3.68" transform="translate(-45.541 -30.139)" fill="#ffbd9e"/>
      <path id="Trazado_7048" data-name="Trazado 7048" d="M303.364,194.747a.738.738,0,0,0-.508-.405c-.765-.148-.651,1.61-.311,1.932a.48.48,0,0,0,.413.1c.215-.039.49-.169.5-.42a3.441,3.441,0,0,0-.035-1.063.8.8,0,0,0-.058-.146" transform="translate(-44.41 -28.55)" fill="#4e372b"/>
      <path id="Trazado_7049" data-name="Trazado 7049" d="M318.471,195.346a1.636,1.636,0,0,0-.174-.932c-.368-.476-.986.005-1.118.428a2.145,2.145,0,0,0-.043.812,1.012,1.012,0,0,0,.178.576.643.643,0,0,0,.965.036,1.387,1.387,0,0,0,.193-.92" transform="translate(-46.589 -28.533)" fill="#4e372b"/>
      <path id="Trazado_7050" data-name="Trazado 7050" d="M310.156,202.239a2.376,2.376,0,0,1-.99-1.066c-.287-.613-.076-.988.1-1.585.256-.87.532-1.733.823-2.592.176-.524-.65-.747-.827-.228-.245.728-.481,1.456-.7,2.192a5.509,5.509,0,0,0-.467,1.833,3.34,3.34,0,0,0,1.631,2.186.428.428,0,0,0,.432-.739" transform="translate(-45.262 -28.865)" fill="#f7a37c"/>
      <path id="Trazado_7051" data-name="Trazado 7051" d="M320.683,211.934a32.785,32.785,0,0,1-8.957,4.746c-.527.156-.179.938.344.784a33.556,33.556,0,0,0,9.144-4.859c.456-.31-.077-.978-.531-.671" transform="translate(-45.759 -31.125)" fill="#f7a37c"/>
      <path id="Trazado_7052" data-name="Trazado 7052" d="M306.688,206.794c.572-.412,7-.676,7.133-.181.233.879-1.341,2.446-3.612,2.568-2.973.159-3.776-2.2-3.521-2.387" transform="translate(-45.05 -30.315)" fill="#fff"/>
      <path id="Trazado_7053" data-name="Trazado 7053" d="M314.935,184.272c-3.334-3.295-9.06.856-16.19.749-1.678-.026-5.242-1.606-5.242-1.606l2.818-3.638a18.085,18.085,0,0,1,1.569-2.924,44.455,44.455,0,0,1,5.35-4.921c.428-.286.642-1.427,2-1s5.362.278,7.774,1.728,8.347,1.91,9.416,2.766a15.209,15.209,0,0,1,2.71,3.567,14.646,14.646,0,0,1,1.356,7.489,65.258,65.258,0,0,1-2.5,11.7,14.42,14.42,0,0,0-.607,3.15s-1.4-1.015-1.39-2.2c.049-4.642,1.64-7.339,1-9.651s-1.783,1-8.062-5.206" transform="translate(-43.12 -25.099)" fill="#4e372b"/>
      <path id="Trazado_7054" data-name="Trazado 7054" d="M305.109,186s-1.646.422-4.427,2.883-2.145,7.594-2.145,7.594-2.883-9.305-2.777-9.626.963-3.943,1.6-3.63,3.232-.758,4.559-.651,3.185,3.43,3.185,3.43" transform="translate(-43.451 -26.821)" fill="#4e372b"/>
      <path id="Trazado_7055" data-name="Trazado 7055" d="M314.038,184.711a23.1,23.1,0,0,1-6.075,2.552c-3.844,1.071-5.252.846-7.33,2.029s-.686-1.715-.686-1.715,4.726-4.929,6.054-5.243,2.825-1.6,4.43-1.276,3.606,3.653,3.606,3.653" transform="translate(-43.999 -26.592)" fill="#4e372b"/>
      <path id="Trazado_7056" data-name="Trazado 7056" d="M308.493,222.747s-14.051,5.858-17.225,8.575-1.651,20.875,0,30.907,2.921,14.984,2.984,20.062-2.1,7.745,1.461,8.888,4.571,1.524,16.253,2.285,15.364-.38,18.919,0,5.714-1.651,5.841-4.571,8.127-46.093,7.619-51.553-4.7-7.238-9.4-9.9a67.806,67.806,0,0,0-11.233-4.69l-7.784,7.414a2.345,2.345,0,0,1-3.673-.568Z" transform="translate(-42.519 -32.725)" fill="#fff1ed"/>
      <path id="Trazado_7057" data-name="Trazado 7057" d="M347.636,232.8s5.563,3.733,7.848,8.939,1.778,34.411,1.016,39.744-3.809,5.842-9.651,5.461a104.406,104.406,0,0,1-13.586-2.169l1.4-44.432Z" transform="translate(-48.961 -34.201)" fill="#fff1ed"/>
      <rect id="Rectángulo_5617" data-name="Rectángulo 5617" width="35.862" height="3.936" transform="translate(180.127 253.376)" fill="#7d6d6c"/>
      <path id="Trazado_7058" data-name="Trazado 7058" d="M285.882,232.8s-3.174,1.448-5.84,8.812c-2.6,7.171-6.989,29.3-9.651,34.784L254.8,281.154s-6.758,4.588,4.288,5.28c3.341.209,5.421.384,6.773.531-.5.541-.805.866-.805.866s-4.318,3.682-3.3,4.317,14.983,2.159,16.126,2.159,8.893-6.094,11.558-32.379-3.558-29.13-3.558-29.13" transform="translate(-37.133 -34.201)" fill="#fff1ed"/>
      <path id="Trazado_7059" data-name="Trazado 7059" d="M315.586,232.246a26.205,26.205,0,0,1-2.147,2.684q-.266.3-.551.578c-.851.595-1.391.785-2.343-.541-.316-.267-.458-1.3-.584-1.671a16.194,16.194,0,0,1-1.019-7.708c.075-.479-.659-.686-.735-.2a14.335,14.335,0,0,0,.31,5.73c.361,1.477.77,4.028,1.854,5.174,2.123,2.243,4.876-2.254,5.873-3.661.285-.4-.376-.781-.658-.384" transform="translate(-45.257 -33.072)" fill="#f5d7d1"/>
      <path id="Trazado_7060" data-name="Trazado 7060" d="M330.612,227.009c-1.391,2.632-2.59,5.693-4.631,7.891-1,1.077-3.08,3.536-4.285,1.557a17.59,17.59,0,0,1-1.606-4.479.382.382,0,0,0-.735.2c.415,1.537,1.784,7.59,4.509,5.833,3.656-2.355,5.47-6.956,7.406-10.62.229-.433-.429-.819-.658-.385" transform="translate(-46.915 -33.323)" fill="#f5d7d1"/>
      <path id="Trazado_7061" data-name="Trazado 7061" d="M260.481,276.851H193.943a5.11,5.11,0,0,1-5.11-5.11v-30.73a5.11,5.11,0,0,1,5.11-5.11h66.538a5.11,5.11,0,0,1,5.11,5.11v30.73a5.11,5.11,0,0,1-5.11,5.11" transform="translate(-27.742 -34.657)" fill="#7d6d6c"/>
      <rect id="Rectángulo_5618" data-name="Rectángulo 5618" width="9.333" height="20.761" transform="translate(194.803 234.647)" fill="#7d6d6c"/>
      <path id="Trazado_7062" data-name="Trazado 7062" d="M235.368,252.439a1.868,1.868,0,1,1-1.868-1.867,1.869,1.869,0,0,1,1.868,1.867" transform="translate(-34.03 -36.813)" fill="#b29c9a"/>
      <path id="Trazado_7063" data-name="Trazado 7063" d="M352.6,238.263c-3.452,1.474-5,4.909-5.862,8.355a55.642,55.642,0,0,0-1.594,13.308.382.382,0,0,0,.763,0,55.946,55.946,0,0,1,1.251-11.749c.808-3.7,2.064-7.65,5.827-9.257.449-.192.061-.848-.385-.658" transform="translate(-50.707 -34.999)" fill="#f5d7d1"/>
      <path id="Trazado_7064" data-name="Trazado 7064" d="M354.536,274.216a18.718,18.718,0,0,0-7.3-5.026c-1.229-.436-5.332-1.745-6.111-.07-.206.442.45.83.657.385.363-.781,3.4-.1,3.83,0a13.957,13.957,0,0,1,3.247,1.222,19.235,19.235,0,0,1,5.141,4.03c.334.358.874-.181.538-.538" transform="translate(-50.11 -39.416)" fill="#f5d7d1"/>
      <path id="Trazado_7065" data-name="Trazado 7065" d="M343.634,292.357c-3.7-3.637-7.441-7.418-9.095-12.458-.152-.463-.888-.264-.734.2,1.7,5.172,5.494,9.058,9.291,12.793.35.345.889-.194.538-.538" transform="translate(-49.038 -41.083)" fill="#f5d7d1"/>
      <path id="Trazado_7066" data-name="Trazado 7066" d="M293.672,267.249a120.8,120.8,0,0,1-2.46-30.208c.021-.49-.741-.488-.762,0a121.7,121.7,0,0,0,2.487,30.411c.1.479.836.276.735-.2" transform="translate(-42.654 -34.771)" fill="#f5d7d1"/>
      <path id="Trazado_7067" data-name="Trazado 7067" d="M345.671,271.315a22.781,22.781,0,0,1-6.912,12.05c-.362.334.178.871.539.539a23.5,23.5,0,0,0,7.107-12.388c.1-.477-.631-.681-.735-.2" transform="translate(-49.751 -39.82)" fill="#f5d7d1"/>
      <path id="Trazado_7068" data-name="Trazado 7068" d="M338.272,279.977a.309.309,0,0,0-.249.19c-.246.528.428,1.176.879.688.392-.426-.154-1.079-.63-.879" transform="translate(-49.653 -41.127)" fill="#f5d7d1"/>
      <path id="Trazado_7069" data-name="Trazado 7069" d="M316.5,237.874a.4.4,0,0,0-.363-.424,6.082,6.082,0,0,0-4.656,1.751c-2.666,2.357-3.151,7.944-3.163,8.324s4.5.318,6.275-1.9c1.513-1.892,1.843-6.437,1.907-7.747" transform="translate(-45.297 -34.881)" fill="#db5449"/>
      <path id="Trazado_7070" data-name="Trazado 7070" d="M318.607,237.454a.4.4,0,0,0-.546.32,14.016,14.016,0,0,0,.964,7.574c1.459,3.065,5.08,4.813,6.349,5.346a.4.4,0,0,0,.554-.3,13.05,13.05,0,0,0-.915-7.207c-1.463-3.522-5.111-5.226-6.407-5.735" transform="translate(-46.706 -34.881)" fill="#db5449"/>
      <path id="Trazado_7071" data-name="Trazado 7071" d="M325.082,258.851a17.56,17.56,0,0,0-1.762-7.269c-1.714-3.017-4.475-5.111-5.046-4.349s1.618,4.285,1.141,4.857-10.108,1.006-12.054,1.36-1.1,4.116.479,6.092,7.766,3.786,11.861,4.452,5.38-5.142,5.38-5.142" transform="translate(-44.99 -36.299)" fill="#ffbd9e"/>
      <path id="Trazado_7072" data-name="Trazado 7072" d="M327.4,260.736l10.115,7.429-5.058,7.332-10.437-9.619,4.257-5.976Z" transform="translate(-47.31 -38.183)" fill="#ffbd9e"/>
      <path id="Trazado_7073" data-name="Trazado 7073" d="M917.8,181.568c-3.093,5.174.366,18.52,2.576,24.273.83,2.154,7.824,7.832,10.872,7.5,4.677-.5,11.8-6.6,12.655-10.094.419-1.707,1.074-17.82-1.89-22.349s-14.308-6.147-18.636-4.379c-3.962,1.615-.084-4.149-5.577,5.044" transform="translate(-134.657 -25.831)" fill="#ffbd9e"/>
      <path id="Trazado_7074" data-name="Trazado 7074" d="M931.117,212.027l1.372,12.073,2.91,5.762,12.052-2.479-2.7-22.237s-5.3,2.665-6.453,3.238-7.185,3.644-7.185,3.644" transform="translate(-136.794 -30.139)" fill="#ffbd9e"/>
      <path id="Trazado_7075" data-name="Trazado 7075" d="M922.158,200.2a.735.735,0,0,0-.624-.169c-.762.169.045,1.736.487,1.9a.472.472,0,0,0,.419-.072c.176-.121.381-.349.29-.583a3.379,3.379,0,0,0-.457-.96c-.038-.04-.076-.078-.114-.113" transform="translate(-135.34 -29.385)" fill="#4e372b"/>
      <path id="Trazado_7076" data-name="Trazado 7076" d="M937.183,197.567a1.662,1.662,0,0,0-.525-.788c-.526-.293-.907.393-.861.834a2.125,2.125,0,0,0,.281.764.967.967,0,0,0,.389.458.639.639,0,0,0,.9-.346,1.359,1.359,0,0,0-.183-.921" transform="translate(-137.481 -28.899)" fill="#4e372b"/>
      <path id="Trazado_7077" data-name="Trazado 7077" d="M930.635,206.127a2.368,2.368,0,0,1-1.188-.838c-.4-.54-.282-.95-.229-1.571.068-.9.16-1.805.266-2.707.061-.548-.792-.6-.853-.052-.091.763-.175,1.525-.236,2.291a5.474,5.474,0,0,0-.076,1.89,3.348,3.348,0,0,0,2.049,1.8.428.428,0,0,0,.267-.813" transform="translate(-136.373 -29.467)" fill="#f7a37c"/>
      <path id="Trazado_7078" data-name="Trazado 7078" d="M950.025,231.431c.762-.463,20.319-.194,23.108,4.516s1.02,35.122,0,44.813-1.775,17.767-1.775,17.767l-54.916-1.346-14.163-3.365,7.116-57.869Z" transform="translate(-132.558 -33.977)" fill="#7d6d6c"/>
      <path id="Trazado_7079" data-name="Trazado 7079" d="M941.84,212.958a32.852,32.852,0,0,1-8.784,5.048c-.526.173-.153.944.366.771a33.559,33.559,0,0,0,8.974-5.167c.45-.324-.107-.975-.556-.652" transform="translate(-137.042 -31.274)" fill="#f7a37c"/>
      <path id="Trazado_7080" data-name="Trazado 7080" d="M928.785,223.108s-14.269,5.457-17.446,8.175-1.646,20.875,0,30.906,2.925,14.984,2.987,20.062-2.1,7.746,1.462,8.889,4.572,1.524,16.25,2.285,15.367-.381,18.917,0,5.714-1.652,5.844-4.572,8.129-46.092,7.619-51.553-4.7-7.238-9.394-9.9a76.422,76.422,0,0,0-11.657-4.921L936,230.122a2.345,2.345,0,0,1-3.672-.568Z" transform="translate(-133.617 -32.685)" fill="#fff1ed"/>
      <path id="Trazado_7081" data-name="Trazado 7081" d="M967.372,232.8s5.569,3.733,7.854,8.939,1.775,34.411,1.013,39.744-3.222,8.013-9.081,8.064c-7.543.063-16.091.063-16.091.063l3.33-49.267Z" transform="translate(-139.725 -34.201)" fill="#fff1ed"/>
      <rect id="Rectángulo_5619" data-name="Rectángulo 5619" width="35.861" height="3.936" transform="translate(709.1 253.376)" fill="#7d6d6c"/>
      <path id="Trazado_7082" data-name="Trazado 7082" d="M905.953,232.8s-3.169,1.448-5.836,8.812c-2.6,7.171-6.994,29.3-9.653,34.784l-15.588,4.759s-6.758,4.588,4.289,5.28c3.336.209,5.417.384,6.773.531-.5.541-.807.866-.807.866s-4.32,3.682-3.3,4.317,14.978,2.159,16.121,2.159,8.9-6.094,11.558-32.379-3.558-29.13-3.558-29.13" transform="translate(-128.231 -34.201)" fill="#fff1ed"/>
      <path id="Trazado_7083" data-name="Trazado 7083" d="M935.659,232.246a26.712,26.712,0,0,1-2.148,2.684q-.264.3-.549.578c-.854.595-1.395.785-2.347-.541-.312-.267-.457-1.3-.579-1.671a16.164,16.164,0,0,1-1.021-7.708c.077-.479-.663-.686-.739-.2a14.412,14.412,0,0,0,.312,5.73c.358,1.477.77,4.028,1.851,5.174,2.126,2.243,4.876-2.254,5.874-3.661.282-.4-.374-.781-.655-.384" transform="translate(-136.354 -33.072)" fill="#f5d7d1"/>
      <path id="Trazado_7084" data-name="Trazado 7084" d="M950.681,227.009c-1.386,2.632-2.582,5.693-4.625,7.891-1.006,1.077-3.086,3.536-4.289,1.557a17.8,17.8,0,0,1-1.607-4.479.38.38,0,0,0-.732.2c.412,1.537,1.783,7.59,4.51,5.833,3.649-2.355,5.471-6.956,7.406-10.62.229-.433-.434-.819-.663-.385" transform="translate(-138.013 -33.323)" fill="#f5d7d1"/>
      <path id="Trazado_7085" data-name="Trazado 7085" d="M880.555,276.851h-66.54a5.11,5.11,0,0,1-5.11-5.11v-30.73a5.11,5.11,0,0,1,5.11-5.11h66.54a5.108,5.108,0,0,1,5.1,5.11v30.73a5.108,5.108,0,0,1-5.1,5.11" transform="translate(-118.84 -34.657)" fill="#7d6d6c"/>
      <rect id="Rectángulo_5620" data-name="Rectángulo 5620" width="9.333" height="20.761" transform="translate(723.774 234.647)" fill="#7d6d6c"/>
      <path id="Trazado_7086" data-name="Trazado 7086" d="M855.438,252.439a1.867,1.867,0,1,1-1.867-1.867,1.869,1.869,0,0,1,1.867,1.867" transform="translate(-125.127 -36.813)" fill="#b29c9a"/>
      <path id="Trazado_7087" data-name="Trazado 7087" d="M972.675,238.263c-3.452,1.474-4.991,4.909-5.86,8.355a55.6,55.6,0,0,0-1.591,13.308.381.381,0,0,0,.762,0,55.778,55.778,0,0,1,1.249-11.749c.807-3.7,2.064-7.65,5.829-9.257.449-.192.06-.848-.389-.658" transform="translate(-141.805 -34.999)" fill="#f5d7d1"/>
      <path id="Trazado_7088" data-name="Trazado 7088" d="M913.743,267.249a120.807,120.807,0,0,1-2.461-30.208c.023-.49-.739-.488-.762,0a121.664,121.664,0,0,0,2.492,30.411c.1.479.83.276.731-.2" transform="translate(-133.751 -34.771)" fill="#f5d7d1"/>
      <path id="Trazado_7089" data-name="Trazado 7089" d="M936.576,237.874a.4.4,0,0,0-.358-.424,6.068,6.068,0,0,0-4.654,1.751c-2.667,2.357-3.155,7.944-3.17,8.324s4.5.318,6.278-1.9c1.509-1.892,1.844-6.437,1.9-7.747" transform="translate(-136.394 -34.881)" fill="#db5449"/>
      <path id="Trazado_7090" data-name="Trazado 7090" d="M938.678,237.454a.4.4,0,0,0-.549.32,14.077,14.077,0,0,0,.967,7.574c1.455,3.065,5.082,4.813,6.346,5.346a.4.4,0,0,0,.556-.3,13,13,0,0,0-.914-7.207c-1.463-3.522-5.113-5.226-6.408-5.735" transform="translate(-137.803 -34.881)" fill="#db5449"/>
      <path id="Trazado_7091" data-name="Trazado 7091" d="M620.116,176.961c-4.149,4.525-3.268,18.793-2.082,24.856.444,2.271,5.52,8.965,8.72,9.207,4.911.373,13.394-4.3,14.94-7.575.756-1.6,4.5-17.311,2.309-22.31s-13.547-8.687-18.341-7.752c-4.381.854-3.384,1.217-5.546,3.574" transform="translate(-90.653 -25.452)" fill="#ffbd9e"/>
      <path id="Trazado_7092" data-name="Trazado 7092" d="M620.487,193.643a.771.771,0,0,0-.523-.427c-.81-.183-.772,1.579-.424,1.916a.534.534,0,0,0,.436.12c.231-.03.531-.147.553-.4a3.2,3.2,0,0,0,.013-1.063.781.781,0,0,0-.055-.149" transform="translate(-90.985 -28.384)" fill="#4e372b"/>
      <path id="Trazado_7093" data-name="Trazado 7093" d="M635.2,194.452a1.455,1.455,0,0,0-.174-.871c-.368-.444-.987,0-1.119.4a1.878,1.878,0,0,0-.044.759.9.9,0,0,0,.179.538.671.671,0,0,0,.965.032,1.23,1.23,0,0,0,.193-.859" transform="translate(-93.121 -28.413)" fill="#4e372b"/>
      <path id="Trazado_7094" data-name="Trazado 7094" d="M626.735,202.385a2.449,2.449,0,0,1-1.059-1.066c-.306-.613-.081-.987.107-1.584.274-.871.569-1.734.879-2.593.189-.523-.7-.747-.883-.227-.261.727-.514,1.456-.751,2.192a5.18,5.18,0,0,0-.5,1.832,3.361,3.361,0,0,0,1.744,2.186c.513.273.974-.467.462-.739" transform="translate(-91.751 -28.886)" fill="#f7a37c"/>
      <path id="Trazado_7095" data-name="Trazado 7095" d="M638.435,211.934a32.777,32.777,0,0,1-8.957,4.746c-.526.156-.179.938.345.784a33.557,33.557,0,0,0,9.144-4.859c.456-.31-.078-.978-.531-.671" transform="translate(-92.441 -31.125)" fill="#f7a37c"/>
      <path id="Trazado_7096" data-name="Trazado 7096" d="M626.245,222.747s-14.051,5.858-17.226,8.575-1.651,20.875,0,30.907,2.921,14.984,2.984,20.062-2.1,7.745,1.461,8.888,4.571,1.524,16.253,2.285,15.364-.38,18.919,0,5.714-1.651,5.841-4.571S662.6,242.8,662.1,237.342s-4.7-7.238-9.4-9.9a67.8,67.8,0,0,0-11.233-4.69s-3.878,4.182-7.56,4.309-7.662-4.309-7.662-4.309" transform="translate(-89.201 -32.725)" fill="#fff1ed"/>
      <path id="Trazado_7097" data-name="Trazado 7097" d="M638.435,211.934a32.777,32.777,0,0,1-8.957,4.746c-.526.156-.179.938.345.784a33.557,33.557,0,0,0,9.144-4.859c.456-.31-.078-.978-.531-.671" transform="translate(-92.441 -31.125)" fill="#f7a37c"/>
      <path id="Trazado_7098" data-name="Trazado 7098" d="M626.245,222.747s-14.051,5.858-17.226,8.575-1.651,20.875,0,30.907,2.921,14.984,2.984,20.062-2.1,7.745,1.461,8.888,4.571,1.524,16.253,2.285,15.364-.38,18.919,0,5.714-1.651,5.841-4.571S662.6,242.8,662.1,237.342s-4.7-7.238-9.4-9.9a67.8,67.8,0,0,0-11.233-4.69s-3.878,4.182-7.56,4.309-7.662-4.309-7.662-4.309" transform="translate(-89.201 -32.725)" fill="#fff1ed"/>
      <path id="Trazado_7099" data-name="Trazado 7099" d="M638.435,211.934a32.777,32.777,0,0,1-8.957,4.746c-.526.156-.179.938.345.784a33.557,33.557,0,0,0,9.144-4.859c.456-.31-.078-.978-.531-.671" transform="translate(-92.441 -31.125)" fill="#f7a37c"/>
      <path id="Trazado_7100" data-name="Trazado 7100" d="M626.245,222.747s-14.051,5.858-17.226,8.575-1.651,20.875,0,30.907,2.921,14.984,2.984,20.062-2.1,7.745,1.461,8.888,4.571,1.524,16.253,2.285,15.364-.38,18.919,0,5.714-1.651,5.841-4.571S662.6,242.8,662.1,237.342s-4.7-7.238-9.4-9.9a67.8,67.8,0,0,0-11.233-4.69s-3.878,4.182-7.56,4.309-7.662-4.309-7.662-4.309" transform="translate(-89.201 -32.725)" fill="#fff1ed"/>
      <path id="Trazado_7101" data-name="Trazado 7101" d="M647.7,231.431c.762-.463,20.316-.194,23.109,4.516s1.017,35.122,0,44.813-1.777,17.767-1.777,17.767l-54.913-1.346-14.163-3.365,7.111-57.869Z" transform="translate(-88.143 -33.977)" fill="#7d6d6c"/>
      <path id="Trazado_7102" data-name="Trazado 7102" d="M627.735,212.063l2.278,12.036,4.486,7.862,10.475-4.58-1.495-22.237s-6.5,2.665-7.651,3.239-8.093,3.68-8.093,3.68" transform="translate(-92.223 -30.139)" fill="#ffbd9e"/>
      <path id="Trazado_7103" data-name="Trazado 7103" d="M638.435,211.934a32.777,32.777,0,0,1-8.957,4.746c-.526.156-.179.938.345.784a33.557,33.557,0,0,0,9.144-4.859c.456-.31-.078-.978-.531-.671" transform="translate(-92.441 -31.125)" fill="#f7a37c"/>
      <path id="Trazado_7104" data-name="Trazado 7104" d="M626.245,222.747s-14.051,5.858-17.226,8.575-1.651,20.875,0,30.907,2.921,14.984,2.984,20.062-2.1,7.745,1.461,8.888,4.571,1.524,16.253,2.285,15.364-.38,18.919,0,5.714-1.651,5.841-4.571S662.6,242.8,662.1,237.342s-4.7-7.238-9.4-9.9a67.8,67.8,0,0,0-11.233-4.69l-7.784,7.414a2.345,2.345,0,0,1-3.673-.568Z" transform="translate(-89.201 -32.725)" fill="#fff1ed"/>
      <path id="Trazado_7105" data-name="Trazado 7105" d="M665.047,232.8s5.563,3.733,7.848,8.939,1.449,34.374,1.016,39.744c-.894,11.079-25.218,8.308-25.218,8.308l3.377-49.448Z" transform="translate(-95.302 -34.201)" fill="#fff1ed"/>
      <path id="Trazado_7106" data-name="Trazado 7106" d="M602.521,232.8s-3.175,1.448-5.841,8.812c-2.6,7.171-6.989,29.3-9.651,34.784l-24.1,7.246s6.623,7.872,7.639,8.507,22.808,2.159,23.951,2.159,10.664-5.861,13.328-32.145-5.328-29.363-5.328-29.363" transform="translate(-82.702 -34.201)" fill="#fff1ed"/>
      <path id="Trazado_7107" data-name="Trazado 7107" d="M633.337,232.246a26.324,26.324,0,0,1-2.146,2.684q-.267.3-.552.578c-.851.595-1.391.785-2.343-.541-.317-.267-.459-1.3-.584-1.671a16.194,16.194,0,0,1-1.019-7.708c.075-.479-.659-.686-.734-.2a14.333,14.333,0,0,0,.31,5.73c.361,1.477.77,4.028,1.854,5.174,2.123,2.243,4.877-2.254,5.873-3.661.284-.4-.376-.781-.658-.384" transform="translate(-91.939 -33.072)" fill="#f5d7d1"/>
      <path id="Trazado_7108" data-name="Trazado 7108" d="M648.364,227.009c-1.391,2.632-2.589,5.693-4.631,7.891-1,1.077-3.079,3.536-4.284,1.557a17.6,17.6,0,0,1-1.607-4.479.381.381,0,0,0-.734.2c.415,1.537,1.783,7.59,4.509,5.833,3.655-2.355,5.469-6.956,7.406-10.62.229-.433-.428-.819-.658-.385" transform="translate(-93.598 -33.323)" fill="#f5d7d1"/>
      <path id="Trazado_7109" data-name="Trazado 7109" d="M631.167,206.051c-2.045.759-3.936,1.645-6.151.895a.383.383,0,1,0-.216.734c2.359.8,4.382-.078,6.583-.894.482-.179.272-.915-.217-.735" transform="translate(-91.751 -30.268)" fill="#f7a37c"/>
      <path id="Trazado_7110" data-name="Trazado 7110" d="M614.992,176.044c-1.264,1.31.63,5.246,2.465,5.655a40.976,40.976,0,0,0,7.513.821c5.01.126,9.732-.8,10.819-.673s1.676,5.435,1.676,7.277,1.4.489,2.976,1.64,1.237,11.228,1.237,11.228a18.209,18.209,0,0,0,2.26-6.013,98.583,98.583,0,0,0,1.813-14.6c.313-9.046-6.315-11.462-12.427-11.09-5.938.362-9.556-.433-13.571,1.394-1.108.5-3.232,2.779-4.761,4.364" transform="translate(-90.291 -25.012)" fill="#704d3e"/>
      <path id="Trazado_7111" data-name="Trazado 7111" d="M635.695,240.879h-.885a1.619,1.619,0,0,1-1.6-1.879l.235-1.453a1.62,1.62,0,0,1,1.6-1.36h.413a1.621,1.621,0,0,1,1.6,1.36l.236,1.453a1.62,1.62,0,0,1-1.6,1.879" transform="translate(-93.025 -34.699)" fill="#db5449"/>
      <path id="Trazado_7112" data-name="Trazado 7112" d="M633.6,240.314s-3.4,26.7-3.777,30.694,2.6,11.992,3.777,12.658,3.388-5.428,4.137-10.19-1.947-32.665-1.947-32.665Z" transform="translate(-92.525 -35.306)" fill="#db5449"/>
      <path id="Trazado_7113" data-name="Trazado 7113" d="M567.266,292.939c-1.55-1.048-5.547-1.582-8.346-.818a7.741,7.741,0,0,0-5.157,4.532c-.21.38,12.981,1.618,12.981,1.618h3.643s-1.009-3.9-3.121-5.333" transform="translate(-81.355 -42.864)" fill="#ffbd9e"/>
      <path id="Trazado_7114" data-name="Trazado 7114" d="M628.024,293.172c-1.549-1.048-5.77-1.506-8.571-.742-3.841,1.048-5.631,5.44-5.841,5.821s14.441.063,14.441.063h3.642s-1.559-3.714-3.671-5.142" transform="translate(-90.148 -42.906)" fill="#ffbd9e"/>
      <path id="Trazado_7115" data-name="Trazado 7115" d="M939.9,293.909c-1.364-.926-5.1-1.33-7.573-.655-3.4.926-4.983,4.809-5.165,5.146s12.769.055,12.769.055h3.214s-1.379-3.284-3.245-4.546" transform="translate(-136.213 -43.034)" fill="#ffbd9e"/>
      <path id="Trazado_7116" data-name="Trazado 7116" d="M569.613,300.947H528.9v-3.936h38.507a2.206,2.206,0,0,1,2.206,2.206Z" transform="translate(-77.703 -43.635)" fill="#7d6d6c"/>
      <path id="Trazado_7117" data-name="Trazado 7117" d="M578.232,276.851H511.694a5.11,5.11,0,0,1-5.11-5.11v-30.73a5.11,5.11,0,0,1,5.11-5.11h66.538a5.11,5.11,0,0,1,5.11,5.11v30.73a5.11,5.11,0,0,1-5.11,5.11" transform="translate(-74.424 -34.657)" fill="#7d6d6c"/>
      <rect id="Rectángulo_5621" data-name="Rectángulo 5621" width="9.333" height="20.761" transform="translate(465.873 234.647)" fill="#7d6d6c"/>
      <path id="Trazado_7118" data-name="Trazado 7118" d="M553.12,252.439a1.868,1.868,0,1,1-1.868-1.867,1.869,1.869,0,0,1,1.868,1.867" transform="translate(-80.712 -36.813)" fill="#b29c9a"/>
      <path id="Trazado_7119" data-name="Trazado 7119" d="M667.471,239.5c-5.849,2.686-7.271,9.293-8.133,15.065-1.07,7.165-2.483,14.409-2.4,21.677a.381.381,0,0,0,.762,0c-.077-6.75,1.183-13.437,2.167-20.091.882-5.958,1.832-13.166,7.989-15.994.445-.2.058-.862-.385-.658" transform="translate(-96.513 -35.18)" fill="#f5d7d1"/>
      <path id="Trazado_7120" data-name="Trazado 7120" d="M652.634,283.1c-3.336,1.736-6.637,3.59-10.035,5.2-2.966,1.408-6.338,1.658-9.186,3.325a.382.382,0,0,0,.385.659,19.144,19.144,0,0,1,4.533-1.752.354.354,0,0,0,.037.27,14.8,14.8,0,0,1,1.8,5.271c.07.484.8.279.735-.2a15.368,15.368,0,0,0-1.879-5.454.336.336,0,0,0-.058-.066,24.915,24.915,0,0,0,4.016-1.395c3.394-1.623,6.7-3.464,10.034-5.2.436-.227.05-.884-.384-.658" transform="translate(-93.03 -41.585)" fill="#f5d7d1"/>
      <path id="Trazado_7121" data-name="Trazado 7121" d="M670.428,285.144c-2.295-.526-4.358-1.626-6.72-1.983a20.305,20.305,0,0,0-6.4.107c-.481.081-.277.816.2.735a19.2,19.2,0,0,1,7.353.144c1.848.409,3.523,1.31,5.36,1.732.477.109.681-.625.2-.735" transform="translate(-96.528 -41.57)" fill="#f5d7d1"/>
      <path id="Trazado_7122" data-name="Trazado 7122" d="M611.408,232.809c-1.368,6.486-1.436,13.1-1.293,19.7.154,7.147.354,14.292.533,21.438a.381.381,0,0,0,.762,0c-.173-6.907-.358-13.814-.518-20.721-.157-6.77-.154-13.561,1.252-20.217.1-.478-.633-.682-.735-.2" transform="translate(-89.627 -34.163)" fill="#f5d7d1"/>
      <path id="Trazado_7123" data-name="Trazado 7123" d="M599.134,289.178a15.378,15.378,0,0,0-6.719-4.427c-.467-.155-.666.581-.2.734a14.607,14.607,0,0,1,6.384,4.23c.326.368.862-.172.538-.538" transform="translate(-86.966 -41.831)" fill="#f5d7d1"/>
      <path id="Trazado_7124" data-name="Trazado 7124" d="M965.85,265.169c-.015-.489-.777-.491-.762,0q.194,7.1-.267,14.187c-.03.49.732.488.763,0q.468-7.087.266-14.187" transform="translate(-141.746 -38.903)" fill="#f5d7d1"/>
      <path id="Trazado_7125" data-name="Trazado 7125" d="M958.612,283.86c-5.082,2.6-11.588,2.628-15.428,7.343-.3.378.229.92.541.539,3.764-4.63,10.27-4.661,15.269-7.225.441-.224.053-.881-.381-.658" transform="translate(-138.554 -41.696)" fill="#f5d7d1"/>
      <path id="Trazado_7126" data-name="Trazado 7126" d="M975.227,285.621c-3.322-2.419-7.146-3.982-11.283-3-.473.113-.275.848.206.734,3.946-.936,7.542.632,10.689,2.927.4.29.776-.371.388-.658" transform="translate(-141.577 -41.477)" fill="#f5d7d1"/>
      <path id="Trazado_7127" data-name="Trazado 7127" d="M955.884,295.986a16.967,16.967,0,0,0-3.52-4.143,5.063,5.063,0,0,0-3.725-1.7c-.488.029-.488.792,0,.762,1.615-.1,2.75,1.06,3.847,2.084a14.438,14.438,0,0,1,2.743,3.383.38.38,0,0,0,.655-.385" transform="translate(-139.315 -42.625)" fill="#f5d7d1"/>
      <path id="Trazado_7128" data-name="Trazado 7128" d="M934.154,209.408c-.671.964-3.551,1.858-4.563,1.088-.389-.3-.8.343-.412.639.823.626,2.1.351,3.033.12a4.219,4.219,0,0,0,2.582-1.431c.275-.405-.366-.819-.64-.415" transform="translate(-136.487 -30.741)" fill="#f7a37c"/>
      <path id="Trazado_7129" data-name="Trazado 7129" d="M917.961,185.044c.48.856,14,5.428,19.146,5.524s5.005,3.988,4.73,5.117a23.252,23.252,0,0,0,0,7.518c.5,3.078,2.216,4.12,2.216,4.12s1.342-7.232,1.052-7.517-1.052-16-1.052-16l-4.083-6.381s-10.629-2.285-10.842-2.285-8.365-.274-9.7.869-5.472,6.75-3.947,8.368,2.477.667,2.477.667" transform="translate(-134.449 -25.726)" fill="#4e372b"/>
      <path id="Trazado_7130" data-name="Trazado 7130" d="M921.523,186.434s-3.245,1.407-3.977,3.9a18.715,18.715,0,0,0-.746,4.6s-2.849.642-2.483-1.124-.267-5.289,0-6.527.16-3.3.838-3.366,6.369,2.509,6.369,2.509" transform="translate(-134.316 -27.021)" fill="#4e372b"/>
      <rect id="Rectángulo_5622" data-name="Rectángulo 5622" width="820.482" height="109.709" transform="translate(60.465 273.692)" fill="#deb2a6"/>
      <path id="Trazado_7131" data-name="Trazado 7131" d="M15.378,310.483a6.463,6.463,0,0,0,1.495,11.76q2.009.592,4.248,1.305c26.849,8.573,25.272,42.161,26.214,65.139C48.865,426.019,62.259,428.3,62.259,428.3l42.351-51.553L80.628,311.739l-57.148-6.1Z" transform="translate(-1.795 -44.903)" fill="#deb2a6"/>
      <path id="Trazado_7132" data-name="Trazado 7132" d="M1074.137,311.529a5.588,5.588,0,0,1-1.356,10.166c-1.867.532-3.908,1.146-6.11,1.852-26.726,8.573-25.157,42.161-26.094,65.139-1.524,37.332-14.856,39.617-14.856,39.617l-42.154-51.553,23.869-65.012,56.888-6.1Z" transform="translate(-144.5 -44.903)" fill="#deb2a6"/>
      <path id="Trazado_7133" data-name="Trazado 7133" d="M935.824,317.678H6.476A6.476,6.476,0,0,1,0,311.2v-5.333a6.476,6.476,0,0,1,6.476-6.476H935.824a5.584,5.584,0,0,1,5.583,5.587v7.111a5.584,5.584,0,0,1-5.583,5.587" transform="translate(0 -43.985)" fill="#b78779"/>
      <path id="Trazado_7134" data-name="Trazado 7134" d="M74.652,282.836H67.575v-97.79a3.539,3.539,0,0,1,7.077,0Z" transform="translate(-9.928 -26.666)" fill="#b78779"/>
      <path id="Trazado_7135" data-name="Trazado 7135" d="M401.218,282.836h-7.077v-97.79a3.539,3.539,0,0,1,7.077,0Z" transform="translate(-57.905 -26.666)" fill="#b78779"/>
      <path id="Trazado_7136" data-name="Trazado 7136" d="M727.783,282.836h-7.077v-97.79a3.539,3.539,0,0,1,7.077,0Z" transform="translate(-105.882 -26.666)" fill="#b78779"/>
      <path id="Trazado_7137" data-name="Trazado 7137" d="M1024.279,282.836h-7.07v-97.79a3.535,3.535,0,1,1,7.07,0Z" transform="translate(-149.442 -26.666)" fill="#b78779"/>
      <rect id="Rectángulo_5623" data-name="Rectángulo 5623" width="1.524" height="114.173" transform="translate(339.013 269.217)" fill="#b78779"/>
      <rect id="Rectángulo_5624" data-name="Rectángulo 5624" width="1.524" height="114.173" transform="translate(60.424 269.217)" fill="#b78779"/>
      <rect id="Rectángulo_5625" data-name="Rectángulo 5625" width="1.524" height="114.173" transform="translate(617.601 269.217)" fill="#b78779"/>
      <rect id="Rectángulo_5626" data-name="Rectángulo 5626" width="1.524" height="114.173" transform="translate(870.54 269.217)" fill="#b78779"/>
      <path id="Trazado_7138" data-name="Trazado 7138" d="M585.331,424.9l.224,11.236,8.55-.171.728-11.255Z" transform="translate(-85.993 -62.396)" fill="#ffbd9e"/>
      <path id="Trazado_7139" data-name="Trazado 7139" d="M585.347,435.98a17.321,17.321,0,0,0-1.181,5.993c.048,2.286.173,4.791.738,5.351s20.563.258,21.227.148,1.238-4.787-1.75-6.537-8.414-2.4-9.1-2.772a4.636,4.636,0,0,1-1.3-1.327Z" transform="translate(-85.822 -64.052)" fill="#4e372b"/>
      <path id="Trazado_7140" data-name="Trazado 7140" d="M585.551,435.893s1.89,2.555,4.23,2.926,4.407-2.069,4.407-2.069l-2.427-1.362s-2.094.042-2.714.053-3.5.451-3.5.451" transform="translate(-86.026 -63.965)" fill="#ffbd9e"/>
      <path id="Trazado_7141" data-name="Trazado 7141" d="M904.4,290.95l-1.326-1.086,9.775-11.938a.857.857,0,0,1,1.326,1.086Z" transform="translate(-132.675 -40.785)" fill="#4e372b"/>
      <path id="Trazado_7142" data-name="Trazado 7142" d="M885.981,424.976l1.89,11.078,8.426-1.436-.944-11.239Z" transform="translate(-130.163 -62.201)" fill="#f7a37c"/>
      <path id="Trazado_7143" data-name="Trazado 7143" d="M887.762,436.071a17.434,17.434,0,0,0-.282,6.1c.389,2.253.884,4.712,1.524,5.182s20.372-2.8,21.02-3,.511-4.917-2.7-6.205-8.678-1.129-9.4-1.391a4.6,4.6,0,0,1-1.486-1.118Z" transform="translate(-130.359 -64.001)" fill="#c93e32"/>
      <path id="Trazado_7144" data-name="Trazado 7144" d="M887.839,435.9s2.248,2.246,4.617,2.267,4.053-2.7,4.053-2.7l-2.605-.988-2.674.457c-.609.1-3.39.964-3.39.964" transform="translate(-130.436 -63.831)" fill="#f7a37c"/>
      <path id="Trazado_7145" data-name="Trazado 7145" d="M913.55,425.191v11.238H922.1l.953-11.238Z" transform="translate(-134.214 -62.467)" fill="#ffbd9e"/>
      <path id="Trazado_7146" data-name="Trazado 7146" d="M913.326,436.243a17.385,17.385,0,0,0-1.3,5.968c.008,2.287.076,4.793.632,5.364s20.555.667,21.218.572,1.333-4.761-1.615-6.571-8.365-2.571-9.043-2.952a4.66,4.66,0,0,1-1.272-1.352Z" transform="translate(-133.989 -64.09)" fill="#db5449"/>
      <path id="Trazado_7147" data-name="Trazado 7147" d="M913.55,436.177s1.836,2.592,4.167,3.01,4.45-1.981,4.45-1.981l-2.4-1.41h-2.712c-.617,0-3.5.381-3.5.381" transform="translate(-134.213 -64.025)" fill="#ffbd9e"/>
      <path id="Trazado_7148" data-name="Trazado 7148" d="M898.127,288.288a42.709,42.709,0,0,0,3.429-3.047c1.653-1.651,5.714-.762,7.238,0s3.307,4.445,2.545,6.476-3.809,5.46-3.809,5.46H899.8Z" transform="translate(-131.948 -41.769)" fill="#ffbd9e"/>
      <path id="Trazado_7149" data-name="Trazado 7149" d="M845.327,219.141,837.9,232.116l13.85,6.891,7.307-12.116Z" transform="translate(-123.099 -32.195)" fill="#ffbd9e"/>
      <path id="Trazado_7150" data-name="Trazado 7150" d="M543.277,424.845l.16,11.237,8.55-.123.792-11.25Z" transform="translate(-79.815 -62.396)" fill="#ffbd9e"/>
      <path id="Trazado_7151" data-name="Trazado 7151" d="M543.226,435.919a17.309,17.309,0,0,0-1.215,5.986c.035,2.286.145,4.791.707,5.354s20.561.375,21.227.27,1.264-4.781-1.713-6.547-8.4-2.453-9.08-2.824a4.621,4.621,0,0,1-1.294-1.333Z" transform="translate(-79.629 -64.043)" fill="#4e372b"/>
      <path id="Trazado_7152" data-name="Trazado 7152" d="M543.435,435.838s1.875,2.565,4.213,2.951,4.418-2.045,4.418-2.045l-2.419-1.376-2.714.039c-.618.009-3.5.431-3.5.431" transform="translate(-79.838 -63.962)" fill="#ffbd9e"/>
      <path id="Trazado_7153" data-name="Trazado 7153" d="M560.921,260.927l1.969-2.54s.281-5.4.585-6.983,2.017-6.857,3.35-6.92-.19,5.333.445,5.967,7.11-3.4,8.824-5.032,4.762-2.4,5.524-1.824.063,7.491-.444,9.142-4.619,5.36-6.094,6.222c-2.848,1.666-5.955,2.992-6.787,3.686a7.764,7.764,0,0,0-1.53,2.155Z" transform="translate(-82.407 -35.76)" fill="#ffbd9e"/>
      <path id="Trazado_7154" data-name="Trazado 7154" d="M555.943,265.248s2.191-4.095,4.095-4.666,5.334,1.238,7.523,3.238,2.285,3.523,1.619,4.761a38.181,38.181,0,0,1-2.285,3.4Z" transform="translate(-81.676 -38.267)" fill="#fff1ed"/>
      <path id="Trazado_7155" data-name="Trazado 7155" d="M479.41,223.876l-1.1,17.167h-16.3l2.191-19.407Z" transform="translate(-67.876 -32.562)" fill="#ffbd9e"/>
      <path id="Trazado_7156" data-name="Trazado 7156" d="M162.8,237.693s-4.77,3.385-5.333,10.92,3.129,21.84,3.129,21.84,9.567-5.841,10.838-7.872,5.333-23.872,4.571-24.888-13.2,0-13.2,0" transform="translate(-23.126 -34.854)" fill="#ffbd9e"/>
      <path id="Trazado_7157" data-name="Trazado 7157" d="M200.7,235.674c.761,1.142,7.379-3.289,13.333,7.554,3.574,6.511,1.283,20.064.267,25.4s-9.175,20.952-13.556,29.9,1.13,29.181-9.162,29.943-27.032-29.562-30.672-44.228.933-39.426,3.6-44.188,8.952-8.38,13.332-8.761,22.857,4.381,22.857,4.381" transform="translate(-23.442 -33.977)" fill="#db5449"/>
      <path id="Trazado_7158" data-name="Trazado 7158" d="M218.679,185.535s2.4,2.2,2.37,2.579.2,10.2-1.213,17.863-6.518,9.866-6.518,9.866-4.386,2.629-4.588,1.852-1-11.523-.878-13.3,2.726-12.033,3.267-12.5,7.559-6.36,7.559-6.36" transform="translate(-30.535 -27.258)" fill="#ffbd9e"/>
      <path id="Trazado_7159" data-name="Trazado 7159" d="M233.632,364.8s-3.129,1.9-5.275,20.161-6.472,41.6-4.108,42.8,6.21,4.219,7.306-.189c1.844-7.421,19.869-58.668,18.486-66.029s-16.407,3.26-16.407,3.26" transform="translate(-32.844 -52.733)" fill="#ffbd9e"/>
      <path id="Trazado_7160" data-name="Trazado 7160" d="M223.324,436.185s-1.57,4.549-1.381,7.685,1.429,3.667,6,3.582,15.379.316,15.714-.467-.957-5.59-7.227-7.548a112.766,112.766,0,0,0-13.109-3.253" transform="translate(-32.604 -64.082)" fill="#4e372b"/>
      <path id="Trazado_7161" data-name="Trazado 7161" d="M223.565,435.86s1.172,3.08,3.587,3.555,4.637-1.705,4.637-1.705l-3.773-3.737Z" transform="translate(-32.845 -63.757)" fill="#ffbd9e"/>
      <path id="Trazado_7162" data-name="Trazado 7162" d="M203.787,364.607s-3.238,1.714-6.476,19.809-8.957,41.14-6.669,42.473,5.945,4.584,7.3.248c2.285-7.295,23.354-57.369,22.415-64.8s-16.574,2.27-16.574,2.27" transform="translate(-27.931 -52.821)" fill="#ffbd9e"/>
      <path id="Trazado_7163" data-name="Trazado 7163" d="M189.821,435.026s-1.84,4.445-1.84,7.588,1.207,3.746,5.778,3.936,15.333,1.238,15.714.476-.62-5.636-6.762-7.967a112.515,112.515,0,0,0-12.89-4.033" transform="translate(-27.617 -63.911)" fill="#4e372b"/>
      <path id="Trazado_7164" data-name="Trazado 7164" d="M190.138,434.747s.986,3.145,3.367,3.763,4.731-1.424,4.731-1.424l-3.542-3.957Z" transform="translate(-27.934 -63.633)" fill="#ffbd9e"/>
      <path id="Trazado_7165" data-name="Trazado 7165" d="M199.129,305.644s2.165,17.5,21.142,20.037,25.9,9.4,25.649,24.635,2.159,36.287-5.841,38.8c-4.7,1.476-7.317.27-15.237-4.771-9.154-5.822-9.9-3.022-21.544-8.165-10.315-4.558-6.454-6.793-15.66-8.254-11.277-1.79-7.873,4.08-15.238-4.595s-13.8-20.1-11.345-25.942,38.074-31.744,38.074-31.744" transform="translate(-23.583 -44.903)" fill="#db5449"/>
      <path id="Trazado_7166" data-name="Trazado 7166" d="M220.862,242.485c-1.689-1.849-8.2-3.429-9.412,3.429s1.212,16.315,7.116,27.553a110.72,110.72,0,0,0,10.92,17.332h37.9s-1.669-6.7-3.047-6.856c-2.23-.258-23.217-1.444-26.645-4.7s-13.353-32.95-16.831-36.759" transform="translate(-31.021 -35.391)" fill="#ffbd9e"/>
      <path id="Trazado_7167" data-name="Trazado 7167" d="M273.623,290.057c1.1-1.15,2.464-1.385,5.479-1.848,5.592-.856,6.654,1,5.394,1.325a16.922,16.922,0,0,0-3.658,1.326,33.049,33.049,0,0,1,6.524,0c2.965.381,4.09,1.992,4.025,3.373a5.45,5.45,0,0,1-1.667,3.484H273.274l-.442-5.841a8.264,8.264,0,0,1,.791-1.819" transform="translate(-40.083 -42.309)" fill="#ffbd9e"/>
      <path id="Trazado_7168" data-name="Trazado 7168" d="M185.445,180.581c-6.6,9.269-3.429,19.173-8.254,25.141s-14.476,11.174-15.745,18.158,1.651,12.571,6.222,14.095l3.3,1.016s6.05,9.523,14.389,9.65,12.53-11.174,12.53-11.174,11.174-1.143,13.2-7.873-2.779-18.158-2.786-25.776.1-15.618,3.287-16,6.326-2.511,3.912-5.9c-4.539-6.381-23.46-10.6-30.062-1.333" transform="translate(-23.675 -25.74)" fill="#704d3e"/>
      <path id="Trazado_7169" data-name="Trazado 7169" d="M489.56,206.394c-.041,6.684-.94,13.885-2.848,14.68s-10.174-.8-10.174-.8v-31s8.107-.635,10.174,0,2.9,8.35,2.848,17.112" transform="translate(-70.01 -27.767)" fill="#ffbd9e"/>
      <path id="Trazado_7170" data-name="Trazado 7170" d="M872.741,219.738c-3.452,5.723-6.8,9.371-8.846,9.08s-10.163-4.028-10.163-4.028l15.847-26.641s5.844,2,7.291,3.6.4,10.49-4.129,17.992" transform="translate(-125.425 -29.111)" fill="#ffbd9e"/>
      <path id="Trazado_7171" data-name="Trazado 7171" d="M483.939,187.769a4.309,4.309,0,0,0,3.037-2.518c.694-2.041-.555-7.923-6.634-8.6s-7.835,1.582-11.309,1.582-6.613-2.418-11.152.864c-3.362,2.431-5.57,5.464-5.354,9.172.274,4.706-1.094,6.316-.389,10.733s3.781,8.215,5.887,13.294c2.2,5.3,4.666,9.736,7.026,9.727a9.237,9.237,0,0,0,7.069-2.557c2.258-2.084,8.63-8.945,7.818-13.5s-1.018-10.318,2.458-12.7,1.544-5.5,1.544-5.5" transform="translate(-66.395 -25.933)" fill="#4e372b"/>
      <path id="Trazado_7172" data-name="Trazado 7172" d="M455.849,238.544s4.029-5.589,12.7-5.587a18.538,18.538,0,0,1,13.713,6.472Z" transform="translate(-66.971 -34.225)" fill="#fff1ed"/>
      <path id="Trazado_7173" data-name="Trazado 7173" d="M432.775,265.047s-1.524-16.319,3.619-21.885,22.094-6.8,31.808-5.9,21.438,3.19,26.433,7.57,5.374,46.417,5.374,46.417-19.618,6.342-28.57,5.39-29.332-2.017-32.76-5.39-5.374-13.277-6.114-14.609.21-11.6.21-11.6" transform="translate(-63.508 -34.818)" fill="#456991"/>
      <path id="Trazado_7174" data-name="Trazado 7174" d="M435.754,244.224a13.172,13.172,0,0,0-5.668,6.813c-1.65,4.7-2.158,12.086-2.158,12.086l4.137,3.8a32.686,32.686,0,0,0,3.69-7.8c1.443-4.532,3.094-10.753,2.84-11.769s-2.84-3.13-2.84-3.13" transform="translate(-62.869 -35.88)" fill="#456991"/>
      <path id="Trazado_7175" data-name="Trazado 7175" d="M499.248,243.406s7.61,1.97,12.69,13.882,13.021,19.882,14.095,19.785c2.794-.254,17.522-15.872,19.554-17.523s15.568,7.977,14.269,9.734c-5.665,7.665-8.682,10.583-13.887,16.424-4.265,4.784-13.587,11.3-17.9,12.952s-9.568,1.524-16.3-5.84-13.018-13.207-12.519-13.587-10.293-27.681-10.293-27.681Z" transform="translate(-71.834 -35.76)" fill="#456991"/>
      <path id="Trazado_7176" data-name="Trazado 7176" d="M512.3,295.961s13.2,27.4,15.321,34.141-2.064,16.4-2.639,17.158-8.194,5.348-11.75,2.038-20.71-16.308-20.64-25.935,5.551-33.5,5.551-33.5Z" transform="translate(-72.369 -42.585)" fill="#456991"/>
      <path id="Trazado_7177" data-name="Trazado 7177" d="M478.478,334.222c1.27-.253,50.184,9.651,59.326,12s7.761,36.887,7.778,52.2c.021,17.959-1.841,17.007-4.672,17.661-2.881.665-12.534,1.821-14.184-1.988-.921-2.126-5.122-45.2-8.7-47.87s-34.979-4.19-36.5-4.572-22.856-4.317-22.856-7.872,6.476-19.562,6.476-19.562Z" transform="translate(-67.385 -49.101)" fill="#38587c"/>
      <path id="Trazado_7178" data-name="Trazado 7178" d="M520.9,329.133c1.27,1.9,45.228,5.294,56.148,11.246,8.289,4.518,9.5,39.316,10.135,57.291.52,14.715-1.017,17.447-5.333,17.324-3.049-.087-11.174,1.491-12.507-1.524-.937-2.12-4.339-45.331-7.916-48s-36.335-4.19-37.859-4.572-22.856-4.317-22.856-7.872,6.476-21.72,6.476-21.72Z" transform="translate(-73.562 -48.354)" fill="#456991"/>
      <path id="Trazado_7179" data-name="Trazado 7179" d="M806.064,334.222c1.27-.253,49.907,11.344,59.325,12,6.4.444,15.161,33.24,16.989,48.442,1.6,13.324,2.872,19.629.252,21.194-3.093,1.852-11.726,2.868-14.034-1.449-1.089-2.045-12.9-43.236-22.978-48.187-4.007-1.967-34.982-4.19-36.506-4.572s-22.856-4.317-22.856-7.872,6.476-19.562,6.476-19.562Z" transform="translate(-115.512 -49.101)" fill="#4e372b"/>
      <path id="Trazado_7180" data-name="Trazado 7180" d="M848.487,329.133c1.272,1.9,45.231,5.294,56.149,11.246,8.289,4.518,8.632,39.316,9.265,57.291.518,14.715-.915,16.233-3.711,17.44s-10.826,1.591-12.539-1.767c-1.06-2.064-5.059-45.2-8.632-47.87s-36.341-4.19-37.864-4.572S828.3,356.584,828.3,353.03s6.476-21.72,6.476-21.72Z" transform="translate(-121.689 -48.354)" fill="#704d3e"/>
      <path id="Trazado_7181" data-name="Trazado 7181" d="M441.423,401.9h17.812v-7.944H441.423Zm19.335,3.047H439.9a1.523,1.523,0,0,1-1.524-1.524V392.43a1.524,1.524,0,0,1,1.524-1.524h20.859a1.524,1.524,0,0,1,1.524,1.524v10.99a1.523,1.523,0,0,1-1.524,1.524" transform="translate(-64.404 -57.43)" fill="#704d3e"/>
      <path id="Trazado_7182" data-name="Trazado 7182" d="M459.918,393.74H441.675v-2.39a1.584,1.584,0,0,1,1.584-1.584h15.076a1.584,1.584,0,0,1,1.583,1.584Z" transform="translate(-64.888 -57.262)" fill="#4e372b"/>
    </g>
  </g>
  <g id="Grupo_8804" data-name="Grupo 8804" transform="translate(355.252 341.238)">
    <g id="Grupo_8803" data-name="Grupo 8803" clip-path="url(#clip-path-2)">
      <path id="Trazado_7183" data-name="Trazado 7183" d="M473.48,442.167H421.252a4.819,4.819,0,0,1-4.82-4.82V404.823a4.819,4.819,0,0,1,4.82-4.819H473.48a4.82,4.82,0,0,1,4.82,4.819v32.524a4.82,4.82,0,0,1-4.82,4.82" transform="translate(-416.432 -400.004)" fill="#704d3e"/>
      <path id="Trazado_7184" data-name="Trazado 7184" d="M415.418,402.58l30.7,16.892,30.518-16.791-.987-6.611c-25.82-1.774-64.649-4.058-66.619-3.137a.479.479,0,0,0-.3.383c-.286,1.658,3.824,6.432,6.681,9.264m30.7,17.707a.389.389,0,0,1-.184-.047L415,403.222a.376.376,0,0,1-.084-.064c-.756-.748-7.38-7.383-6.933-9.971a1.24,1.24,0,0,1,.725-.944c2.79-1.307,60.706,2.634,67.3,3.088a.381.381,0,0,1,.351.324l1.07,7.176a.381.381,0,0,1-.193.391l-30.934,17.019a.388.388,0,0,1-.183.047" transform="translate(-415.188 -398.825)" fill="#4e372b"/>
    </g>
  </g>
  <g id="Grupo_8806" data-name="Grupo 8806">
    <g id="Grupo_8805" data-name="Grupo 8805" clip-path="url(#clip-path)">
      <path id="Trazado_7185" data-name="Trazado 7185" d="M501.9,244.79a13.548,13.548,0,0,0-5.538,11.76c.028.486.791.491.762,0a12.779,12.779,0,0,1,5.16-11.1c.39-.288.011-.95-.384-.658" transform="translate(-72.918 -35.952)" fill="#38587c"/>
      <path id="Trazado_7186" data-name="Trazado 7186" d="M539.1,289.169a34.684,34.684,0,0,0-5.422-5.9c-.369-.318-.91.218-.539.539a33.874,33.874,0,0,1,5.3,5.747c.286.392.947.013.658-.384" transform="translate(-78.307 -41.601)" fill="#38587c"/>
      <path id="Trazado_7187" data-name="Trazado 7187" d="M534.158,338.925a16.221,16.221,0,0,1-4.021,9.877c-.321.369.216.909.539.538a17.108,17.108,0,0,0,4.244-10.415c.028-.49-.734-.488-.762,0" transform="translate(-77.87 -49.739)" fill="#38587c"/>
      <path id="Trazado_7188" data-name="Trazado 7188" d="M589.033,354.35a19.189,19.189,0,0,1-2.175,2.293q-.623.549-1.295,1.038c-.237.173-.479.337-.724.5q-.147.1-.3.189a.335.335,0,0,0-.134.108.364.364,0,0,0-.626-.212.583.583,0,0,0-.009.865c.446.428,1.055-.035,1.45-.292a18.781,18.781,0,0,0,4.348-3.948c.306-.378-.229-.921-.538-.538" transform="translate(-85.737 -52.04)" fill="#38587c"/>
      <path id="Trazado_7189" data-name="Trazado 7189" d="M589.668,359.143a4.259,4.259,0,0,1-2.983,1.5c-.487.032-.49.793,0,.762a5.016,5.016,0,0,0,3.522-1.727c.32-.369-.217-.909-.538-.538" transform="translate(-86.138 -52.745)" fill="#38587c"/>
      <path id="Trazado_7190" data-name="Trazado 7190" d="M436.2,246.291a14.1,14.1,0,0,0-.773,8.583c.1.479.838.276.734-.2a13.419,13.419,0,0,1,.775-8.178c.189-.451-.548-.648-.735-.2" transform="translate(-63.92 -36.147)" fill="#38587c"/>
      <path id="Trazado_7191" data-name="Trazado 7191" d="M202.615,311.094a29.547,29.547,0,0,1-11.5-.022c-.479-.095-.683.64-.2.735a30.678,30.678,0,0,0,11.91.022c.48-.094.276-.828-.2-.735" transform="translate(-28.007 -45.7)" fill="#c93e32"/>
      <path id="Trazado_7192" data-name="Trazado 7192" d="M254,346.561a25.232,25.232,0,0,1-13.226,4.4c-.488.022-.491.784,0,.762a25.979,25.979,0,0,0,13.611-4.505c.4-.274.021-.935-.385-.658" transform="translate(-35.319 -50.905)" fill="#c93e32"/>
      <path id="Trazado_7193" data-name="Trazado 7193" d="M253.711,350.356a19.652,19.652,0,0,1-4.358,2.006c-.466.148-.266.885.2.734a20.541,20.541,0,0,0,4.541-2.083c.417-.257.034-.916-.385-.658" transform="translate(-36.594 -51.464)" fill="#c93e32"/>
      <path id="Trazado_7194" data-name="Trazado 7194" d="M872.907,203.835c-3.863,1.493-5.867,5.138-7.855,8.767-2.133,3.883-7.283,6.553-9.69,7.228s-4.869,2.23-6.956,1.119c-1.814-.967-2.758-2.34-2.8-5.478-.084-6.516-.792-6.592.724-17.318,1.051-7.394,4.441-11.2,7.542-12.78a15.618,15.618,0,0,1,9.736-.978c3.962,1.1,10.339,3.9,12.282,5.595s4.228,6.731,2.987,9.543-2.69,3.047-5.874,4.265c-.031.012-.068.024-.1.037" transform="translate(-124.197 -27.031)" fill="#704d3e"/>
      <path id="Trazado_7195" data-name="Trazado 7195" d="M805.63,247.5c1.877-5.242,4.317-13.418,17.267-17.216,9.478-2.779,27.222,4.63,33.705,7.749s8.007,9.785,7.055,15.88S850.47,278.2,848.206,285.2s10.1,28.444,9.645,31.5c-2.148,14.348-27.526,23.311-32.288,23.311s-13.266-25.161-20.7-30.3c-.392-.271-9.143-34.55.762-62.219" transform="translate(-117.667 -33.742)" fill="#78bccf"/>
      <path id="Trazado_7196" data-name="Trazado 7196" d="M866.743,240.591a23.365,23.365,0,0,1,9.828,13.213c2.583,8.767,4.632,23.671,7.109,25.622,2.255,1.78,3.756,1.713,6.728,1.71,5.775,0,6.377,3.262,6.491,5.562a11.826,11.826,0,0,1-.648,4.056H870.926l-12.388-26.368Z" transform="translate(-126.131 -35.346)" fill="#78bccf"/>
      <path id="Trazado_7197" data-name="Trazado 7197" d="M914.508,345.386a20.543,20.543,0,0,1-4.609,8.1c-.328.36.206.9.541.538a21.466,21.466,0,0,0,4.807-8.438.383.383,0,0,0-.739-.2" transform="translate(-133.662 -50.703)" fill="#4e372b"/>
      <path id="Trazado_7198" data-name="Trazado 7198" d="M914.984,351.729a27.961,27.961,0,0,1-3.779,3.591c-.388.3.16.839.541.538a27.346,27.346,0,0,0,3.772-3.59c.32-.369-.213-.91-.533-.539" transform="translate(-133.849 -51.656)" fill="#4e372b"/>
      <path id="Trazado_7199" data-name="Trazado 7199" d="M924.485,423.915a11.847,11.847,0,0,1-10.766-.159c-.434-.226-.816.432-.381.659a12.657,12.657,0,0,0,11.528.16c.441-.214.061-.871-.38-.659" transform="translate(-134.154 -62.249)" fill="#4e372b"/>
      <path id="Trazado_7200" data-name="Trazado 7200" d="M865.019,241.565c-4.45,1.617-7.032,5.841-7.6,10.4-.762,6.109,1.692,11.977,3.367,17.723a.384.384,0,0,0,.74-.2c-1.44-4.929-3.436-9.848-3.482-15.055-.038-5.028,2.149-10.307,7.169-12.132.457-.166.259-.9-.2-.735" transform="translate(-125.947 -35.486)" fill="#58a3b7"/>
      <path id="Trazado_7201" data-name="Trazado 7201" d="M851.28,299.417a9.476,9.476,0,0,1-8.648-.592.383.383,0,0,0-.389.659,10.2,10.2,0,0,0,9.235.669c.449-.186.251-.924-.2-.735" transform="translate(-123.711 -43.893)" fill="#58a3b7"/>
      <path id="Trazado_7202" data-name="Trazado 7202" d="M852.658,301.49a9.234,9.234,0,0,1-4.472,2.728.382.382,0,0,0,.206.735,9.933,9.933,0,0,0,4.8-2.925c.328-.362-.206-.9-.533-.538" transform="translate(-124.571 -44.275)" fill="#58a3b7"/>
      <rect id="Rectángulo_5629" data-name="Rectángulo 5629" width="6.349" height="21.714" transform="translate(190.593 282.962)" fill="#7d6d6c"/>
      <path id="Trazado_7203" data-name="Trazado 7203" d="M169.111,383.015l-18.157-10.541h36.315Z" transform="translate(-22.177 -54.722)" fill="#7d6d6c"/>
      <rect id="Rectángulo_5630" data-name="Rectángulo 5630" width="8.846" height="64.394" transform="translate(142.511 317.118)" fill="#7d6d6c"/>
      <path id="Trazado_7204" data-name="Trazado 7204" d="M78.551,269.815c-.009,10.236,16.275,68.975,24.974,76.972,9.432,8.669,28.39,9.236,59.626,9.491,30.778.25,54.643-.736,60.187-1.27,10.54-1.016,8.635-13.08,3.005-13.176-4.633-.081-34.749.732-42.876-3.331s-13.713-66.282-22.347-74.916c-7.621-7.621-82.557-9.416-82.569,6.231" transform="translate(-11.54 -37.888)" fill="#fff1ed"/>
      <path id="Trazado_7205" data-name="Trazado 7205" d="M166.659,430.036,138.29,444.467a1.108,1.108,0,0,0,.5,2.1H195.53a1.108,1.108,0,0,0,.5-2.1l-28.368-14.431a1.115,1.115,0,0,0-1,0" transform="translate(-20.228 -63.161)" fill="#7d6d6c"/>
      <path id="Trazado_7206" data-name="Trazado 7206" d="M192.432,320.985c.381.021,38.6-.81,41.648,1.132s5.333,11.811-2.413,12.62-30.545-.558-37.966,0c-5.714.431-6.731-14.07-1.27-13.752" transform="translate(-27.742 -47.134)" fill="#fff1ed"/>
      <path id="Trazado_7207" data-name="Trazado 7207" d="M194.061,332.592c-.581-.467-.624-1.8-.778-2.48q-.282-1.231-.535-2.47c-.364-1.768-.686-3.544-.978-5.325-.079-.483-.812-.278-.735.2.351,2.138.746,4.266,1.2,6.385.253,1.176.3,3.432,1.286,4.224.379.305.92-.23.539-.538" transform="translate(-28.065 -47.313)" fill="#f5d7d1"/>
      <path id="Trazado_7208" data-name="Trazado 7208" d="M169.6,305.784c-1.753,3.544-6.113,3.222-9.48,3.243q-5.094.033-10.186.059-10.268.038-20.536-.113-20.916-.306-41.81-1.4c-.49-.025-.489.737,0,.762q22.409,1.161,44.852,1.437,10.86.129,21.72.051c3.558-.022,7.353.305,10.879-.238a6.617,6.617,0,0,0,5.219-3.421c.216-.437-.441-.825-.658-.384" transform="translate(-12.814 -44.896)" fill="#f5d7d1"/>
      <path id="Trazado_7209" data-name="Trazado 7209" d="M171.471,283.735c-1.666-5.877-3.636-13.55-.613-19.29.229-.433-.429-.819-.658-.384-2.834,5.381-1.441,12.323.006,17.925,1.694,6.561,4.242,12.875,5.461,19.56.089.481.823.278.735-.2-1.1-6.019-3.266-11.738-4.931-17.609" transform="translate(-24.763 -38.766)" fill="#f5d7d1"/>
      <path id="Trazado_7210" data-name="Trazado 7210" d="M197.355,349.379c-.8,1.448-2.587,4.318-4.457,4.264-1.814-.056-3.069-3.119-3.785-4.589a112.8,112.8,0,0,1-4.919-11.8,120.147,120.147,0,0,1-5.747-23.746c-.067-.484-.8-.277-.734.2a120.061,120.061,0,0,0,7.739,28.973c1.493,3.659,2.944,8.231,5.8,11.078,1.246,1.241,1.795,1.242,3.184.2a13.035,13.035,0,0,0,3.574-4.2c.237-.43-.42-.814-.658-.384" transform="translate(-26.108 -46.019)" fill="#f5d7d1"/>
      <path id="Trazado_7211" data-name="Trazado 7211" d="M245.2,363.577c-8.108.82-16.261.856-24.4.9-8.056.045-16.141-.07-24.038-1.832-.478-.108-.682.627-.2.734,7.725,1.724,15.633,1.9,23.516,1.863,8.381-.038,16.78-.061,25.127-.906.483-.049.489-.811,0-.762" transform="translate(-28.838 -53.277)" fill="#f5d7d1"/>
      <rect id="Rectángulo_5631" data-name="Rectángulo 5631" width="6.349" height="21.714" transform="translate(469.435 282.962)" fill="#7d6d6c"/>
      <path id="Trazado_7212" data-name="Trazado 7212" d="M495.974,383.015l-18.157-10.541h36.315Z" transform="translate(-70.198 -54.722)" fill="#7d6d6c"/>
      <rect id="Rectángulo_5632" data-name="Rectángulo 5632" width="8.846" height="64.394" transform="translate(421.354 317.118)" fill="#7d6d6c"/>
      <path id="Trazado_7213" data-name="Trazado 7213" d="M405.414,269.815c-.009,10.236,16.275,68.975,24.974,76.972,9.432,8.669,28.39,9.236,59.626,9.491,30.778.25,54.644-.736,60.187-1.27,10.539-1.016,8.634-13.08,3.005-13.176-4.633-.081-34.749.732-42.876-3.331s-13.713-66.282-22.347-74.916c-7.621-7.621-82.557-9.416-82.569,6.231" transform="translate(-59.561 -37.888)" fill="#fff1ed"/>
      <path id="Trazado_7214" data-name="Trazado 7214" d="M493.522,430.036l-28.369,14.431a1.108,1.108,0,0,0,.5,2.1h56.737a1.108,1.108,0,0,0,.5-2.1l-28.368-14.431a1.115,1.115,0,0,0-1,0" transform="translate(-68.248 -63.161)" fill="#7d6d6c"/>
      <path id="Trazado_7215" data-name="Trazado 7215" d="M519.3,320.985c.381.021,38.6-.81,41.648,1.132s5.333,11.811-2.412,12.62-30.545-.558-37.966,0c-5.714.431-6.731-14.07-1.27-13.752" transform="translate(-75.763 -47.134)" fill="#fff1ed"/>
      <path id="Trazado_7216" data-name="Trazado 7216" d="M520.915,332.592c-.58-.467-.624-1.8-.778-2.48q-.28-1.231-.536-2.47c-.364-1.768-.685-3.544-.977-5.325-.079-.483-.814-.278-.734.2.35,2.138.744,4.266,1.2,6.385.253,1.176.3,3.432,1.286,4.224.379.305.92-.23.539-.538" transform="translate(-76.085 -47.313)" fill="#f5d7d1"/>
      <path id="Trazado_7217" data-name="Trazado 7217" d="M496.452,305.784c-1.752,3.544-6.113,3.222-9.48,3.243q-5.093.033-10.185.059-10.269.038-20.536-.113-20.917-.306-41.81-1.4c-.49-.025-.489.737,0,.762q22.409,1.161,44.852,1.437,10.859.129,21.72.051c3.558-.022,7.353.305,10.878-.238a6.617,6.617,0,0,0,5.22-3.421c.216-.437-.441-.825-.659-.384" transform="translate(-60.833 -44.896)" fill="#f5d7d1"/>
      <path id="Trazado_7218" data-name="Trazado 7218" d="M498.326,283.735c-1.667-5.877-3.637-13.55-.614-19.29.229-.433-.429-.819-.658-.384-2.833,5.381-1.441,12.323.007,17.925,1.694,6.561,4.24,12.875,5.461,19.56.088.481.823.278.734-.2-1.1-6.019-3.266-11.738-4.93-17.609" transform="translate(-72.783 -38.766)" fill="#f5d7d1"/>
      <path id="Trazado_7219" data-name="Trazado 7219" d="M524.209,349.379c-.8,1.448-2.587,4.318-4.456,4.264-1.814-.056-3.069-3.119-3.786-4.589a113.176,113.176,0,0,1-4.919-11.8,120.2,120.2,0,0,1-5.746-23.746c-.067-.484-.8-.277-.735.2a120.063,120.063,0,0,0,7.74,28.973c1.493,3.659,2.944,8.231,5.8,11.078,1.246,1.241,1.794,1.242,3.184.2a13.056,13.056,0,0,0,3.574-4.2c.237-.43-.42-.814-.658-.384" transform="translate(-74.127 -46.019)" fill="#f5d7d1"/>
      <path id="Trazado_7220" data-name="Trazado 7220" d="M572.058,363.577c-8.107.82-16.26.856-24.4.9-8.056.045-16.142-.07-24.039-1.832-.478-.108-.682.627-.2.734,7.725,1.724,15.633,1.9,23.516,1.863,8.381-.038,16.779-.061,25.126-.906.483-.049.488-.811,0-.762" transform="translate(-76.857 -53.277)" fill="#f5d7d1"/>
      <rect id="Rectángulo_5633" data-name="Rectángulo 5633" width="6.354" height="21.714" transform="translate(748.276 282.962)" fill="#7d6d6c"/>
      <path id="Trazado_7221" data-name="Trazado 7221" d="M822.84,383.015l-18.161-10.541H841Z" transform="translate(-118.219 -54.722)" fill="#7d6d6c"/>
      <rect id="Rectángulo_5634" data-name="Rectángulo 5634" width="8.845" height="64.394" transform="translate(700.195 317.118)" fill="#7d6d6c"/>
      <path id="Trazado_7222" data-name="Trazado 7222" d="M732.276,269.815c-.009,10.236,16.274,68.975,24.973,76.972,9.433,8.669,28.391,9.236,59.631,9.491,30.772.25,54.641-.736,60.188-1.27,10.536-1.016,8.632-13.08,3-13.176-4.631-.081-34.748.732-42.878-3.331s-13.713-66.282-22.345-74.916c-7.622-7.621-82.558-9.416-82.57,6.231" transform="translate(-107.582 -37.888)" fill="#fff1ed"/>
      <path id="Trazado_7223" data-name="Trazado 7223" d="M820.388,430.036l-28.37,14.431a1.108,1.108,0,0,0,.5,2.1h56.734a1.108,1.108,0,0,0,.5-2.1l-28.364-14.431a1.116,1.116,0,0,0-1.006,0" transform="translate(-116.269 -63.161)" fill="#7d6d6c"/>
      <path id="Trazado_7224" data-name="Trazado 7224" d="M846.157,320.985c.38.021,38.6-.81,41.651,1.132s5.333,11.811-2.415,12.62-30.543-.558-37.964,0c-5.714.431-6.727-14.07-1.272-13.752" transform="translate(-123.784 -47.134)" fill="#fff1ed"/>
      <path id="Trazado_7225" data-name="Trazado 7225" d="M847.772,332.592c-.579-.467-.624-1.8-.777-2.48-.19-.821-.366-1.645-.541-2.47q-.538-2.651-.975-5.325c-.076-.483-.815-.278-.732.2.351,2.138.74,4.266,1.2,6.385.251,1.176.3,3.432,1.287,4.224.38.305.922-.23.541-.538" transform="translate(-124.104 -47.313)" fill="#f5d7d1"/>
      <path id="Trazado_7226" data-name="Trazado 7226" d="M823.31,305.784c-1.752,3.544-6.117,3.222-9.485,3.243q-5.089.033-10.183.059-10.268.038-20.535-.113-20.917-.306-41.81-1.4c-.491-.025-.489.737,0,.762q22.408,1.161,44.852,1.437,10.86.129,21.72.051c3.557-.022,7.351.305,10.878-.238a6.6,6.6,0,0,0,5.219-3.421c.213-.437-.442-.825-.655-.384" transform="translate(-108.853 -44.896)" fill="#f5d7d1"/>
      <path id="Trazado_7227" data-name="Trazado 7227" d="M825.18,283.735c-1.666-5.877-3.637-13.55-.614-19.29.232-.433-.427-.819-.658-.384-2.833,5.381-1.44,12.323.006,17.925,1.693,6.561,4.244,12.875,5.463,19.56.084.481.822.278.731-.2-1.1-6.019-3.26-11.738-4.928-17.609" transform="translate(-120.802 -38.766)" fill="#f5d7d1"/>
      <path id="Trazado_7228" data-name="Trazado 7228" d="M851.064,349.379c-.8,1.448-2.582,4.318-4.456,4.264-1.814-.056-3.071-3.119-3.787-4.589a112.048,112.048,0,0,1-4.914-11.8,120.572,120.572,0,0,1-5.752-23.746c-.068-.484-.8-.277-.731.2a120.022,120.022,0,0,0,7.74,28.973c1.494,3.659,2.941,8.231,5.8,11.078,1.249,1.241,1.8,1.242,3.184.2a12.919,12.919,0,0,0,3.574-4.2c.244-.43-.419-.814-.655-.384" transform="translate(-122.147 -46.019)" fill="#f5d7d1"/>
      <path id="Trazado_7229" data-name="Trazado 7229" d="M898.911,363.577c-8.106.82-16.258.856-24.4.9-8.053.045-16.136-.07-24.037-1.832-.48-.108-.678.627-.206.734,7.725,1.724,15.633,1.9,23.519,1.863,8.38-.038,16.784-.061,25.126-.906.488-.049.488-.811,0-.762" transform="translate(-124.877 -53.277)" fill="#f5d7d1"/>
    </g>
  </g>
</svg>
