<svg xmlns="http://www.w3.org/2000/svg" width="76.28" height="105.339" viewBox="0 0 76.28 105.339">
  <g id="Grupo_8810" data-name="Grupo 8810" transform="translate(0)">
    <path id="Trazado_7240" data-name="Trazado 7240" d="M72.647,105.339H3.632A3.632,3.632,0,0,1,0,101.707V3.632A3.632,3.632,0,0,1,3.632,0H72.647A3.632,3.632,0,0,1,76.28,3.632v98.074a3.632,3.632,0,0,1-3.632,3.632" transform="translate(0)" fill="#e7e9f1"/>
    <path id="Trazado_7241" data-name="Trazado 7241" d="M35.244,44.326H13.45a1.816,1.816,0,0,1-1.816-1.817V13.451a1.816,1.816,0,0,1,1.816-1.817H35.244a1.817,1.817,0,0,1,1.817,1.817V42.509a1.817,1.817,0,0,1-1.817,1.817" transform="translate(-4.369 -4.369)" fill="#cedb71"/>
    <path id="Trazado_7242" data-name="Trazado 7242" d="M33.765,50.256V46.34H24.876v3.916l4.444,4.475Z" transform="translate(-9.342 -17.403)" fill="#d7a06b"/>
    <path id="Trazado_7243" data-name="Trazado 7243" d="M35.553,52.788,29.5,51.43a.979.979,0,0,1-.254-.1l-4.9,2.725L19.638,51.2a.985.985,0,0,1-.445.23l-6.051,1.357A1.885,1.885,0,0,0,11.634,54.6v2.766a1.817,1.817,0,0,0,1.817,1.817H35.244a1.817,1.817,0,0,0,1.817-1.817V54.6a1.885,1.885,0,0,0-1.508-1.815" transform="translate(-4.369 -19.228)" fill="#c5e5fa"/>
    <path id="Trazado_7244" data-name="Trazado 7244" d="M49.285,54.8,46.116,57.51a2.283,2.283,0,0,0-.811,1.733v1.291H47.89a1.816,1.816,0,0,0,1.817-1.816V55.953a1.809,1.809,0,0,0-.422-1.156" transform="translate(-17.014 -20.579)" fill="#b1d7f3"/>
    <path id="Trazado_7245" data-name="Trazado 7245" d="M15.224,57.51,12.056,54.8a1.8,1.8,0,0,0-.422,1.155v2.767a1.816,1.816,0,0,0,1.817,1.816h2.585V59.244a2.283,2.283,0,0,0-.811-1.733" transform="translate(-4.369 -20.579)" fill="#b1d7f3"/>
    <path id="Trazado_7246" data-name="Trazado 7246" d="M32.481,60.894H30.035l.306-5.143h1.833Z" transform="translate(-11.28 -20.937)" fill="#5f5e6f"/>
    <path id="Trazado_7247" data-name="Trazado 7247" d="M24,49.564,28.464,53.4a16.991,16.991,0,0,0-2.8,1.817A.643.643,0,0,1,24.7,55l-2.1-4.4.664-.95A.5.5,0,0,1,24,49.564" transform="translate(-8.486 -18.569)" fill="#b1d7f3"/>
    <path id="Trazado_7248" data-name="Trazado 7248" d="M36.463,49.564,31.994,53.4a16.991,16.991,0,0,1,2.8,1.817.643.643,0,0,0,.971-.21l2.1-4.4-.664-.95a.5.5,0,0,0-.734-.088" transform="translate(-12.015 -18.569)" fill="#b1d7f3"/>
    <path id="Trazado_7249" data-name="Trazado 7249" d="M29.441,20.359H25.808a5.448,5.448,0,0,0-5.448,5.449v3.944a3.635,3.635,0,0,0,1.063,2.568l.752.752h10.9l.752-.752a3.632,3.632,0,0,0,1.064-2.568V25.808a5.449,5.449,0,0,0-5.449-5.449" transform="translate(-7.646 -7.646)" fill="#724e4c"/>
    <path id="Trazado_7250" data-name="Trazado 7250" d="M22.956,33.234l.233,5.235a2.753,2.753,0,0,0,1.067,2.064L26.1,41.948a2.639,2.639,0,0,0,1.605.547H29.49a2.641,2.641,0,0,0,1.605-.547l1.844-1.414a2.754,2.754,0,0,0,1.068-2.064l.232-5.235a3.322,3.322,0,0,0-3.277-3.506H26.234a3.322,3.322,0,0,0-3.278,3.506" transform="translate(-8.62 -11.164)" fill="#f3c689"/>
    <path id="Trazado_7251" data-name="Trazado 7251" d="M91.23,15.266H65.8a1.816,1.816,0,0,1,0-3.632H91.23a1.816,1.816,0,0,1,0,3.632" transform="translate(-24.03 -4.369)" fill="#ffdb82"/>
    <path id="Trazado_7252" data-name="Trazado 7252" d="M91.23,38.534H65.8a1.816,1.816,0,0,1,0-3.632H91.23a1.816,1.816,0,0,1,0,3.632" transform="translate(-25.796 -13.108)" fill="#d3d8e9"/>
    <path id="Trazado_7253" data-name="Trazado 7253" d="M91.23,61.8H65.8a1.816,1.816,0,0,1,0-3.632H91.23a1.816,1.816,0,0,1,0,3.632" transform="translate(-25.796 -21.846)" fill="#d3d8e9"/>
    <path id="Trazado_7254" data-name="Trazado 7254" d="M51.248,79.252H36.718a1.816,1.816,0,0,1,0-3.632h14.53a1.816,1.816,0,1,1,0,3.632" transform="translate(-14.873 -28.399)" fill="#d3d8e9"/>
    <path id="Trazado_7255" data-name="Trazado 7255" d="M35.244,90.887H13.45a1.816,1.816,0,0,1,0-3.632H35.244a1.816,1.816,0,1,1,0,3.632" transform="translate(-6.135 -32.768)" fill="#d3d8e9"/>
    <path id="Trazado_7256" data-name="Trazado 7256" d="M89.045,90.887H59.986a1.816,1.816,0,0,1,0-3.632H89.045a1.816,1.816,0,0,1,0,3.632" transform="translate(-23.611 -32.768)" fill="#d3d8e9"/>
    <path id="Trazado_7257" data-name="Trazado 7257" d="M75.252,79.252H71.62a1.816,1.816,0,1,1,0-3.632h3.632a1.816,1.816,0,0,1,0,3.632" transform="translate(-26.215 -28.399)" fill="#e1e6f3"/>
    <path id="Trazado_7258" data-name="Trazado 7258" d="M20.715,79.252H13.45a1.816,1.816,0,0,1,0-3.632h7.265a1.816,1.816,0,0,1,0,3.632" transform="translate(-4.369 -28.399)" fill="#aeb2ca"/>
    <path id="Trazado_7259" data-name="Trazado 7259" d="M51.248,108.337H36.718a1.816,1.816,0,0,1,0-3.632h14.53a1.816,1.816,0,1,1,0,3.632" transform="translate(-14.873 -39.323)" fill="#d3d8e9"/>
    <path id="Trazado_7260" data-name="Trazado 7260" d="M35.244,119.972H13.45a1.816,1.816,0,0,1,0-3.632H35.244a1.816,1.816,0,1,1,0,3.632" transform="translate(-4.369 -43.692)" fill="#d3d8e9"/>
    <path id="Trazado_7261" data-name="Trazado 7261" d="M89.045,119.972H59.986a1.816,1.816,0,0,1,0-3.632H89.045a1.816,1.816,0,0,1,0,3.632" transform="translate(-23.611 -43.692)" fill="#d3d8e9"/>
    <path id="Trazado_7262" data-name="Trazado 7262" d="M75.252,108.337H71.62a1.816,1.816,0,1,1,0-3.632h3.632a1.816,1.816,0,0,1,0,3.632" transform="translate(-26.215 -39.323)" fill="#e1e6f3"/>
    <path id="Trazado_7263" data-name="Trazado 7263" d="M20.715,108.337H13.45a1.816,1.816,0,0,1,0-3.632h7.265a1.816,1.816,0,0,1,0,3.632" transform="translate(-4.369 -39.323)" fill="#aeb2ca"/>
    <path id="Trazado_7264" data-name="Trazado 7264" d="M51.248,137.422H36.718a1.816,1.816,0,0,1,0-3.632h14.53a1.816,1.816,0,1,1,0,3.632" transform="translate(-13.108 -50.245)" fill="#d3d8e9"/>
    <path id="Trazado_7265" data-name="Trazado 7265" d="M35.244,149.056H13.45a1.816,1.816,0,0,1,0-3.632H35.244a1.816,1.816,0,1,1,0,3.632" transform="translate(-4.369 -54.614)" fill="#d3d8e9"/>
    <path id="Trazado_7266" data-name="Trazado 7266" d="M89.045,149.056H59.986a1.816,1.816,0,0,1,0-3.632H89.045a1.816,1.816,0,0,1,0,3.632" transform="translate(-21.846 -54.614)" fill="#d3d8e9"/>
    <path id="Trazado_7267" data-name="Trazado 7267" d="M75.252,137.422H71.62a1.816,1.816,0,1,1,0-3.632h3.632a1.816,1.816,0,0,1,0,3.632" transform="translate(-26.215 -50.245)" fill="#e1e6f3"/>
    <path id="Trazado_7268" data-name="Trazado 7268" d="M20.715,137.422H13.45a1.816,1.816,0,0,1,0-3.632h7.265a1.816,1.816,0,0,1,0,3.632" transform="translate(-4.369 -50.245)" fill="#aeb2ca"/>
    <path id="Trazado_7269" data-name="Trazado 7269" d="M91.23,50.168H65.8a1.816,1.816,0,0,1,0-3.632H91.23a1.816,1.816,0,0,1,0,3.632" transform="translate(-25.796 -17.477)" fill="#d3d8e9"/>
    <path id="Trazado_7270" data-name="Trazado 7270" d="M91.23,26.9H65.8a1.816,1.816,0,0,1,0-3.632H91.23a1.816,1.816,0,0,1,0,3.632" transform="translate(-24.03 -8.738)" fill="#ffdb82"/>
  </g>
</svg>
