<svg xmlns="http://www.w3.org/2000/svg" width="87.177" height="105.34" viewBox="0 0 87.177 105.34">
  <g id="Grupo_8809" data-name="Grupo 8809" transform="translate(0)">
    <path id="Trazado_7271" data-name="Trazado 7271" d="M600.023,14.542h0a1.816,1.816,0,0,0-1.817,1.816V36.336h3.632V16.358a1.816,1.816,0,0,0-1.816-1.816" transform="translate(-536.457 -5.461)" fill="#bbc1da"/>
    <path id="Trazado_7272" data-name="Trazado 7272" d="M611.657,26.176h0a1.817,1.817,0,0,0-1.816,1.817V47.97h3.632V27.993a1.816,1.816,0,0,0-1.816-1.817" transform="translate(-540.826 -9.83)" fill="#bbc1da"/>
    <path id="Trazado_7273" data-name="Trazado 7273" d="M592.39,43.627H616a1.816,1.816,0,0,1,1.817,1.816v74.464H592.39Z" transform="translate(-534.272 -16.385)" fill="#d3d8e9"/>
    <rect id="Rectángulo_5655" data-name="Rectángulo 5655" width="25.427" height="7.265" transform="translate(58.118 96.258)" fill="#bbc1da"/>
    <rect id="Rectángulo_5656" data-name="Rectángulo 5656" width="27.243" height="3.632" transform="translate(56.302 88.994)" fill="#bbc1da"/>
    <rect id="Rectángulo_5657" data-name="Rectángulo 5657" width="3.632" height="3.632" transform="translate(76.28 88.994)" fill="#989cb1"/>
    <rect id="Rectángulo_5658" data-name="Rectángulo 5658" width="3.632" height="3.632" transform="translate(61.75 88.994)" fill="#989cb1"/>
    <rect id="Rectángulo_5659" data-name="Rectángulo 5659" width="3.632" height="3.632" transform="translate(69.015 88.994)" fill="#989cb1"/>
    <rect id="Rectángulo_5660" data-name="Rectángulo 5660" width="27.243" height="3.632" transform="translate(56.302 81.729)" fill="#bbc1da"/>
    <rect id="Rectángulo_5661" data-name="Rectángulo 5661" width="3.632" height="3.632" transform="translate(76.28 81.729)" fill="#989cb1"/>
    <rect id="Rectángulo_5662" data-name="Rectángulo 5662" width="3.632" height="3.632" transform="translate(61.75 81.729)" fill="#989cb1"/>
    <rect id="Rectángulo_5663" data-name="Rectángulo 5663" width="3.632" height="3.632" transform="translate(69.015 81.729)" fill="#989cb1"/>
    <rect id="Rectángulo_5664" data-name="Rectángulo 5664" width="27.243" height="3.632" transform="translate(56.302 74.464)" fill="#bbc1da"/>
    <rect id="Rectángulo_5665" data-name="Rectángulo 5665" width="3.632" height="3.632" transform="translate(76.28 74.464)" fill="#989cb1"/>
    <rect id="Rectángulo_5666" data-name="Rectángulo 5666" width="3.632" height="3.632" transform="translate(61.75 74.464)" fill="#989cb1"/>
    <rect id="Rectángulo_5667" data-name="Rectángulo 5667" width="3.632" height="3.632" transform="translate(69.015 74.464)" fill="#989cb1"/>
    <rect id="Rectángulo_5668" data-name="Rectángulo 5668" width="27.243" height="3.632" transform="translate(56.302 67.2)" fill="#bbc1da"/>
    <rect id="Rectángulo_5669" data-name="Rectángulo 5669" width="3.632" height="3.632" transform="translate(76.28 67.2)" fill="#989cb1"/>
    <rect id="Rectángulo_5670" data-name="Rectángulo 5670" width="3.632" height="3.632" transform="translate(61.75 67.2)" fill="#989cb1"/>
    <rect id="Rectángulo_5671" data-name="Rectángulo 5671" width="3.632" height="3.632" transform="translate(69.015 67.2)" fill="#989cb1"/>
    <rect id="Rectángulo_5672" data-name="Rectángulo 5672" width="27.243" height="3.632" transform="translate(56.302 59.935)" fill="#bbc1da"/>
    <rect id="Rectángulo_5673" data-name="Rectángulo 5673" width="3.632" height="3.632" transform="translate(76.28 59.935)" fill="#989cb1"/>
    <rect id="Rectángulo_5674" data-name="Rectángulo 5674" width="3.632" height="3.632" transform="translate(61.75 59.935)" fill="#989cb1"/>
    <rect id="Rectángulo_5675" data-name="Rectángulo 5675" width="3.632" height="3.632" transform="translate(69.015 59.935)" fill="#989cb1"/>
    <rect id="Rectángulo_5676" data-name="Rectángulo 5676" width="27.243" height="3.632" transform="translate(56.302 52.669)" fill="#bbc1da"/>
    <rect id="Rectángulo_5677" data-name="Rectángulo 5677" width="3.632" height="3.632" transform="translate(76.28 52.669)" fill="#989cb1"/>
    <rect id="Rectángulo_5678" data-name="Rectángulo 5678" width="3.632" height="3.632" transform="translate(61.75 52.669)" fill="#989cb1"/>
    <rect id="Rectángulo_5679" data-name="Rectángulo 5679" width="3.632" height="3.632" transform="translate(69.015 52.669)" fill="#989cb1"/>
    <rect id="Rectángulo_5680" data-name="Rectángulo 5680" width="27.243" height="3.632" transform="translate(56.302 45.405)" fill="#bbc1da"/>
    <rect id="Rectángulo_5681" data-name="Rectángulo 5681" width="3.632" height="3.632" transform="translate(76.28 45.405)" fill="#989cb1"/>
    <rect id="Rectángulo_5682" data-name="Rectángulo 5682" width="3.632" height="3.632" transform="translate(61.75 45.405)" fill="#989cb1"/>
    <rect id="Rectángulo_5683" data-name="Rectángulo 5683" width="3.632" height="3.632" transform="translate(69.015 45.405)" fill="#989cb1"/>
    <rect id="Rectángulo_5684" data-name="Rectángulo 5684" width="27.243" height="3.632" transform="translate(56.302 38.14)" fill="#bbc1da"/>
    <rect id="Rectángulo_5685" data-name="Rectángulo 5685" width="3.632" height="3.632" transform="translate(76.28 38.14)" fill="#989cb1"/>
    <rect id="Rectángulo_5686" data-name="Rectángulo 5686" width="3.632" height="3.632" transform="translate(61.75 38.14)" fill="#989cb1"/>
    <rect id="Rectángulo_5687" data-name="Rectángulo 5687" width="3.632" height="3.632" transform="translate(69.015 38.14)" fill="#989cb1"/>
    <rect id="Rectángulo_5688" data-name="Rectángulo 5688" width="27.243" height="3.632" transform="translate(56.302 30.875)" fill="#bbc1da"/>
    <rect id="Rectángulo_5689" data-name="Rectángulo 5689" width="3.632" height="3.632" transform="translate(76.28 30.875)" fill="#989cb1"/>
    <rect id="Rectángulo_5690" data-name="Rectángulo 5690" width="3.632" height="3.632" transform="translate(61.75 30.875)" fill="#989cb1"/>
    <rect id="Rectángulo_5691" data-name="Rectángulo 5691" width="3.632" height="3.632" transform="translate(69.015 30.875)" fill="#989cb1"/>
    <path id="Trazado_7274" data-name="Trazado 7274" d="M559.621,103.523H505.135V1.817A1.817,1.817,0,0,1,506.952,0H557.8a1.817,1.817,0,0,1,1.817,1.817Z" transform="translate(-501.503)" fill="#bbc1da"/>
    <path id="Trazado_7275" data-name="Trazado 7275" d="M512.769,90.823h0a1.816,1.816,0,0,1-1.817-1.816V16.359a1.816,1.816,0,0,1,3.632,0V89.007a1.816,1.816,0,0,1-1.816,1.816" transform="translate(-503.688 -5.462)" fill="#989cb1"/>
    <rect id="Rectángulo_5692" data-name="Rectángulo 5692" width="54.486" height="14.53" transform="translate(3.632 88.994)" fill="#aaaec6"/>
    <path id="Trazado_7276" data-name="Trazado 7276" d="M514.585,157.414v-7.265a1.816,1.816,0,0,0-3.632,0v7.265Z" transform="translate(-503.688 -55.706)" fill="#76768a"/>
    <path id="Trazado_7277" data-name="Trazado 7277" d="M524.4,90.823h0a1.816,1.816,0,0,1-1.816-1.816V16.359a1.816,1.816,0,0,1,3.632,0V89.007a1.816,1.816,0,0,1-1.816,1.816" transform="translate(-508.057 -5.462)" fill="#989cb1"/>
    <path id="Trazado_7278" data-name="Trazado 7278" d="M526.219,157.414v-7.265a1.816,1.816,0,0,0-3.633,0v7.265Z" transform="translate(-508.057 -55.706)" fill="#76768a"/>
    <path id="Trazado_7279" data-name="Trazado 7279" d="M536.036,90.823h0a1.816,1.816,0,0,1-1.817-1.816V16.359a1.816,1.816,0,0,1,3.632,0V89.007a1.816,1.816,0,0,1-1.816,1.816" transform="translate(-512.426 -5.462)" fill="#989cb1"/>
    <path id="Trazado_7280" data-name="Trazado 7280" d="M537.852,157.414v-7.265a1.816,1.816,0,0,0-3.632,0v7.265Z" transform="translate(-512.426 -55.706)" fill="#76768a"/>
    <path id="Trazado_7281" data-name="Trazado 7281" d="M547.671,90.823h0a1.816,1.816,0,0,1-1.817-1.816V16.359a1.816,1.816,0,0,1,3.633,0V89.007a1.816,1.816,0,0,1-1.816,1.816" transform="translate(-516.795 -5.462)" fill="#989cb1"/>
    <path id="Trazado_7282" data-name="Trazado 7282" d="M549.487,157.414v-7.265a1.816,1.816,0,0,0-3.632,0v7.265Z" transform="translate(-516.796 -55.706)" fill="#76768a"/>
    <path id="Trazado_7283" data-name="Trazado 7283" d="M559.3,90.823h0a1.816,1.816,0,0,1-1.816-1.816V16.359a1.816,1.816,0,0,1,3.632,0V89.007a1.816,1.816,0,0,1-1.817,1.816" transform="translate(-521.165 -5.462)" fill="#989cb1"/>
    <path id="Trazado_7284" data-name="Trazado 7284" d="M561.12,157.414v-7.265a1.816,1.816,0,0,0-3.632,0v7.265Z" transform="translate(-521.164 -55.706)" fill="#76768a"/>
    <path id="Trazado_7285" data-name="Trazado 7285" d="M570.938,90.823h0a1.816,1.816,0,0,1-1.816-1.816V16.359a1.816,1.816,0,0,1,3.632,0V89.007a1.816,1.816,0,0,1-1.816,1.816" transform="translate(-525.534 -5.462)" fill="#989cb1"/>
    <path id="Trazado_7286" data-name="Trazado 7286" d="M572.754,157.414v-7.265a1.816,1.816,0,0,0-3.632,0v7.265Z" transform="translate(-525.534 -55.706)" fill="#76768a"/>
    <path id="Trazado_7287" data-name="Trazado 7287" d="M582.573,90.823h0a1.816,1.816,0,0,1-1.817-1.816V16.359a1.817,1.817,0,0,1,3.633,0V89.007a1.816,1.816,0,0,1-1.817,1.816" transform="translate(-529.903 -5.462)" fill="#989cb1"/>
    <path id="Trazado_7288" data-name="Trazado 7288" d="M584.388,157.414v-7.265a1.816,1.816,0,0,0-3.632,0v7.265Z" transform="translate(-529.903 -55.706)" fill="#76768a"/>
    <rect id="Rectángulo_5693" data-name="Rectángulo 5693" width="3.632" height="3.632" transform="translate(7.265 78.096)" fill="#76768a"/>
    <rect id="Rectángulo_5694" data-name="Rectángulo 5694" width="3.632" height="3.632" transform="translate(14.53 78.096)" fill="#76768a"/>
    <rect id="Rectángulo_5695" data-name="Rectángulo 5695" width="3.632" height="3.632" transform="translate(21.794 78.096)" fill="#76768a"/>
    <rect id="Rectángulo_5696" data-name="Rectángulo 5696" width="3.632" height="3.632" transform="translate(29.059 78.096)" fill="#76768a"/>
    <rect id="Rectángulo_5697" data-name="Rectángulo 5697" width="3.632" height="3.632" transform="translate(36.323 78.096)" fill="#76768a"/>
    <rect id="Rectángulo_5698" data-name="Rectángulo 5698" width="3.632" height="3.632" transform="translate(43.588 78.096)" fill="#76768a"/>
    <rect id="Rectángulo_5699" data-name="Rectángulo 5699" width="3.632" height="3.632" transform="translate(50.853 78.096)" fill="#76768a"/>
    <rect id="Rectángulo_5700" data-name="Rectángulo 5700" width="3.632" height="3.632" transform="translate(7.265 67.2)" fill="#76768a"/>
    <rect id="Rectángulo_5701" data-name="Rectángulo 5701" width="3.632" height="3.632" transform="translate(14.53 67.2)" fill="#76768a"/>
    <rect id="Rectángulo_5702" data-name="Rectángulo 5702" width="3.632" height="3.632" transform="translate(21.794 67.2)" fill="#76768a"/>
    <rect id="Rectángulo_5703" data-name="Rectángulo 5703" width="3.632" height="3.632" transform="translate(29.059 67.2)" fill="#76768a"/>
    <rect id="Rectángulo_5704" data-name="Rectángulo 5704" width="3.632" height="3.632" transform="translate(36.323 67.2)" fill="#76768a"/>
    <rect id="Rectángulo_5705" data-name="Rectángulo 5705" width="3.632" height="3.632" transform="translate(43.588 67.2)" fill="#76768a"/>
    <rect id="Rectángulo_5706" data-name="Rectángulo 5706" width="3.632" height="3.632" transform="translate(50.853 67.2)" fill="#76768a"/>
    <rect id="Rectángulo_5707" data-name="Rectángulo 5707" width="3.632" height="3.632" transform="translate(7.265 56.302)" fill="#76768a"/>
    <rect id="Rectángulo_5708" data-name="Rectángulo 5708" width="3.632" height="3.632" transform="translate(14.53 56.302)" fill="#76768a"/>
    <rect id="Rectángulo_5709" data-name="Rectángulo 5709" width="3.632" height="3.632" transform="translate(21.794 56.302)" fill="#76768a"/>
    <rect id="Rectángulo_5710" data-name="Rectángulo 5710" width="3.632" height="3.632" transform="translate(29.059 56.302)" fill="#76768a"/>
    <rect id="Rectángulo_5711" data-name="Rectángulo 5711" width="3.632" height="3.632" transform="translate(36.323 56.302)" fill="#76768a"/>
    <rect id="Rectángulo_5712" data-name="Rectángulo 5712" width="3.632" height="3.632" transform="translate(43.588 56.302)" fill="#76768a"/>
    <rect id="Rectángulo_5713" data-name="Rectángulo 5713" width="3.632" height="3.632" transform="translate(50.853 56.302)" fill="#76768a"/>
    <rect id="Rectángulo_5714" data-name="Rectángulo 5714" width="3.632" height="3.632" transform="translate(7.265 45.405)" fill="#76768a"/>
    <rect id="Rectángulo_5715" data-name="Rectángulo 5715" width="3.632" height="3.632" transform="translate(14.53 45.405)" fill="#76768a"/>
    <rect id="Rectángulo_5716" data-name="Rectángulo 5716" width="3.632" height="3.632" transform="translate(21.794 45.405)" fill="#76768a"/>
    <rect id="Rectángulo_5717" data-name="Rectángulo 5717" width="3.632" height="3.632" transform="translate(29.059 45.405)" fill="#76768a"/>
    <rect id="Rectángulo_5718" data-name="Rectángulo 5718" width="3.632" height="3.632" transform="translate(36.323 45.405)" fill="#76768a"/>
    <rect id="Rectángulo_5719" data-name="Rectángulo 5719" width="3.632" height="3.632" transform="translate(43.588 45.405)" fill="#76768a"/>
    <rect id="Rectángulo_5720" data-name="Rectángulo 5720" width="3.632" height="3.632" transform="translate(50.853 45.405)" fill="#76768a"/>
    <rect id="Rectángulo_5721" data-name="Rectángulo 5721" width="3.632" height="3.632" transform="translate(7.265 34.508)" fill="#76768a"/>
    <rect id="Rectángulo_5722" data-name="Rectángulo 5722" width="3.632" height="3.632" transform="translate(14.53 34.508)" fill="#76768a"/>
    <rect id="Rectángulo_5723" data-name="Rectángulo 5723" width="3.632" height="3.632" transform="translate(21.794 34.508)" fill="#76768a"/>
    <rect id="Rectángulo_5724" data-name="Rectángulo 5724" width="3.632" height="3.632" transform="translate(29.059 34.508)" fill="#76768a"/>
    <rect id="Rectángulo_5725" data-name="Rectángulo 5725" width="3.632" height="3.632" transform="translate(36.323 34.508)" fill="#76768a"/>
    <rect id="Rectángulo_5726" data-name="Rectángulo 5726" width="3.632" height="3.632" transform="translate(43.588 34.508)" fill="#76768a"/>
    <rect id="Rectángulo_5727" data-name="Rectángulo 5727" width="3.632" height="3.632" transform="translate(50.853 34.508)" fill="#76768a"/>
    <rect id="Rectángulo_5728" data-name="Rectángulo 5728" width="3.632" height="3.632" transform="translate(7.265 23.611)" fill="#76768a"/>
    <rect id="Rectángulo_5729" data-name="Rectángulo 5729" width="3.632" height="3.632" transform="translate(14.53 23.611)" fill="#76768a"/>
    <rect id="Rectángulo_5730" data-name="Rectángulo 5730" width="3.632" height="3.632" transform="translate(21.794 23.611)" fill="#76768a"/>
    <rect id="Rectángulo_5731" data-name="Rectángulo 5731" width="3.632" height="3.632" transform="translate(29.059 23.611)" fill="#76768a"/>
    <rect id="Rectángulo_5732" data-name="Rectángulo 5732" width="3.632" height="3.632" transform="translate(36.323 23.611)" fill="#76768a"/>
    <rect id="Rectángulo_5733" data-name="Rectángulo 5733" width="3.632" height="3.632" transform="translate(43.588 23.611)" fill="#76768a"/>
    <rect id="Rectángulo_5734" data-name="Rectángulo 5734" width="3.632" height="3.632" transform="translate(50.853 23.611)" fill="#76768a"/>
    <rect id="Rectángulo_5735" data-name="Rectángulo 5735" width="3.632" height="3.632" transform="translate(7.265 12.713)" fill="#76768a"/>
    <rect id="Rectángulo_5736" data-name="Rectángulo 5736" width="3.632" height="3.632" transform="translate(14.53 12.713)" fill="#76768a"/>
    <rect id="Rectángulo_5737" data-name="Rectángulo 5737" width="3.632" height="3.632" transform="translate(21.794 12.713)" fill="#76768a"/>
    <rect id="Rectángulo_5738" data-name="Rectángulo 5738" width="3.632" height="3.632" transform="translate(29.059 12.713)" fill="#76768a"/>
    <rect id="Rectángulo_5739" data-name="Rectángulo 5739" width="3.632" height="3.632" transform="translate(36.323 12.713)" fill="#76768a"/>
    <rect id="Rectángulo_5740" data-name="Rectángulo 5740" width="3.632" height="3.632" transform="translate(43.588 12.713)" fill="#76768a"/>
    <rect id="Rectángulo_5741" data-name="Rectángulo 5741" width="3.632" height="3.632" transform="translate(50.853 12.713)" fill="#76768a"/>
    <path id="Trazado_7289" data-name="Trazado 7289" d="M559.621,5.448H505.135V1.816A1.817,1.817,0,0,1,506.952,0H557.8a1.817,1.817,0,0,1,1.817,1.817Z" transform="translate(-501.503 0.001)" fill="#989cb1"/>
    <path id="Trazado_7290" data-name="Trazado 7290" d="M584.68,166.507H501.135a1.816,1.816,0,0,1,0-3.632H584.68a1.816,1.816,0,0,1,0,3.632" transform="translate(-499.319 -61.168)" fill="#989cb1"/>
  </g>
</svg>
